<?xml version="1.0" encoding="UTF-8" standalone="no"?>
<svg
   xmlns:dc="http://purl.org/dc/elements/1.1/"
   xmlns:cc="http://creativecommons.org/ns#"
   xmlns:rdf="http://www.w3.org/1999/02/22-rdf-syntax-ns#"
   xmlns:svg="http://www.w3.org/2000/svg"
   xmlns="http://www.w3.org/2000/svg"
   xmlns:sodipodi="http://sodipodi.sourceforge.net/DTD/sodipodi-0.dtd"
   xmlns:inkscape="http://www.inkscape.org/namespaces/inkscape"
   width="4500"
   height="2160"
   version="1.1"
   inkscape:version="0.48.4 r9939">
  <sodipodi:namedview
     id="base"
     inkscape:document-units="in"
     units="in" />
  <g
     inkscape:groupmode="layer"
     inkscape:label="Background"
     transform="translate(0,2047.5)"
     style="display:inline"
     sodipodi:insensitive="true">
    <rect
       style="fill:#3589d1;fill-opacity:1;stroke:none"
       width="4500"
       height="2160"
       x="3.4590975e-08"
       y="-2047.5" />
  </g>
  <g
     inkscape:groupmode="layer"
     inkscape:label="Clouds"
     transform="translate(0,2047.5)"
     style="display:inline"
     sodipodi:insensitive="true">
    <path
       style="fill:#a5caea;fill-opacity:1;stroke:none"
       d="m 368.5,402.75 c -29.07115,0 -55.76685,10.22528 -76.65625,27.28125 -11.4295,-4.06734 -23.73711,-6.3125 -36.5625,-6.3125 -41.97691,0 -78.40261,23.73114 -96.625,58.5 -1.31735,-0.0624 -2.63596,-0.125 -3.96875,-0.125 -45.6654,0 -82.6875,37.0221 -82.6875,82.6875 0,45.6654 37.0221,82.6875 82.6875,82.6875 19.23351,0 36.92277,-6.57961 50.96875,-17.59375 14.88833,7.62579 31.74798,11.90625 49.625,11.90625 18.79292,0 36.47153,-4.75323 51.90625,-13.125 17.98703,10.55889 38.94792,16.625 61.3125,16.625 23.55017,0 45.51989,-6.72677 64.125,-18.34375 15.89973,13.43394 36.42996,21.5625 58.875,21.5625 50.4303,0 91.3125,-40.8822 91.3125,-91.3125 0,-50.4303 -40.8822,-91.3125 -91.3125,-91.3125 -5.40578,0 -10.69599,0.44285 -15.84375,1.34375 C 455.28724,428.87184 414.94807,402.75 368.5,402.75 z"
       transform="translate(0,-2047.5)"
       inkscape:connector-curvature="0" />
    <path
       style="fill:#a5caea;fill-opacity:1;stroke:none"
       d="m 2545.6562,143.65625 c -44.0899,0 -84.1346,17.34099 -113.6874,45.5625 -17.0609,-6.90103 -35.7153,-10.6875 -55.25,-10.6875 -56.9782,0 -106.402,32.31064 -130.9376,79.625 -6.2499,-1.12592 -12.6758,-1.71875 -19.25,-1.71875 -59.6058,0 -107.9374,48.33169 -107.9374,107.9375 0,59.60581 48.3316,107.9375 107.9374,107.9375 25.7351,0 49.3595,-9.02832 67.9063,-24.0625 23.5008,15.84084 51.8082,25.09375 82.2813,25.09375 30.4482,0 58.7604,-9.24525 82.25,-25.0625 25.1775,15.62544 54.8759,24.65625 86.6874,24.65625 28.6443,0 55.5704,-7.32326 79.0313,-20.1875 22.626,17.4513 50.9971,27.84375 81.7813,27.84375 27.263,0 52.6198,-8.17192 73.7812,-22.15625 17.5705,14.58393 40.1311,23.375 64.75,23.375 56.0355,0 101.4688,-45.4333 101.4688,-101.46875 0,-56.03545 -45.4333,-101.46875 -101.4688,-101.46875 -7.404,0 -14.6093,0.80669 -21.5625,2.3125 -22.9349,-40.93118 -66.7131,-68.59375 -116.9687,-68.59375 -8.6116,0 -17.0279,0.7916 -25.1876,2.34375 -29.6955,-43.05384 -79.3672,-71.28125 -135.625,-71.28125 z"
       transform="translate(0,-2047.5)"
       inkscape:connector-curvature="0" />
    <path
       style="fill:#a5caea;fill-opacity:1;stroke:none"
       d="m 3592.0625,635.71875 c -46.9303,0 -87.0294,29.25263 -103.0937,70.5 -40.7059,0.81494 -73.4688,34.03653 -73.4688,74.9375 0,41.41231 33.5877,75 75,75 16.8081,0 32.3393,-5.53477 44.8438,-14.875 16.5857,9.92835 35.9825,15.65625 56.7187,15.65625 20.9175,0 40.4753,-5.81671 57.1563,-15.90625 16.7307,13.51224 38.0069,21.59375 61.1874,21.59375 18.7165,0 36.2157,-5.29328 51.0626,-14.4375 12.022,8.201 26.5366,12.96875 42.1874,12.96875 16.5097,0 31.7694,-5.33405 44.1563,-14.375 10.8521,7.60831 24.0528,12.09375 38.3125,12.09375 36.9172,0 66.8438,-29.92652 66.8438,-66.84375 0,-36.91723 -29.9266,-66.84375 -66.8438,-66.84375 -10.8781,0 -21.1413,2.60867 -30.2188,7.21875 -13.5037,-13.11975 -31.9352,-21.21875 -52.25,-21.21875 -3.9036,0 -7.7259,0.29995 -11.4687,0.875 -17.3835,-26.7274 -47.5217,-44.40625 -81.7813,-44.40625 -12.2147,0 -23.8816,2.27241 -34.6562,6.375 -20.2808,-23.46029 -50.2425,-38.3125 -83.6875,-38.3125 z"
       transform="translate(0,-2047.5)"
       inkscape:connector-curvature="0" />
    <path
       style="fill:#a5caea;fill-opacity:1;stroke:none"
       d="m 4290.4688,862.0625 c -30.1123,0 -57.0271,13.70923 -74.8438,35.21875 -6.5527,-1.71439 -13.4411,-2.65625 -20.5312,-2.65625 -26.6876,0 -50.34,12.9672 -65.0626,32.90625 -6.8633,-2.5009 -14.2716,-3.875 -22,-3.875 -35.4894,0 -64.25,28.76058 -64.25,64.25 0,35.48945 28.7606,64.28125 64.25,64.28125 14.225,0 27.3854,-4.6445 38.0313,-12.4687 13.6032,10.3976 30.5871,16.5937 49.0313,16.5937 16.7989,0 32.4159,-5.1048 45.3437,-13.875 14.6133,8.7988 31.7306,13.875 50.0313,13.875 22.0706,0 42.4076,-7.3491 58.7187,-19.75 10.3916,7.2224 23.0112,11.4687 36.625,11.4687 35.4894,1e-4 64.25,-28.7605 64.25,-64.24995 0,-35.48942 -28.7606,-64.28125 -64.25,-64.28125 -2.2075,0 -4.3811,0.12644 -6.5313,0.34375 -15.1009,-34.04088 -49.1735,-57.78125 -88.8124,-57.78125 z"
       transform="translate(0,-2047.5)"
       inkscape:connector-curvature="0" />
    <path
       style="fill:#a5caea;fill-opacity:1;stroke:none"
       d="m 4213.4375,84.21875 c -49.2679,0 -93.4482,21.72588 -123.4687,56.15625 -14.2949,-5.06634 -29.6875,-7.84375 -45.7188,-7.84375 -53.4157,0 -99.6895,30.61216 -122.2188,75.25 -5.0805,-0.79969 -10.2885,-1.21875 -15.5937,-1.21875 -54.9514,0 -99.5,44.54863 -99.5,99.5 0,54.95137 44.5486,99.5 99.5,99.5 23.6639,0 45.3903,-8.26702 62.4687,-22.0625 21.6147,14.29785 47.488,22.65625 75.3438,22.65625 28.2784,0 54.5654,-8.58308 76.375,-23.28125 26.3799,18.18038 58.3517,28.84375 92.8125,28.84375 28.378,0 55.0736,-7.2055 78.3437,-19.90625 16.1698,11.36244 35.8611,18.0625 57.125,18.0625 54.9514,0 99.5,-44.54863 99.5,-99.5 10e-5,-46.40986 -31.7685,-85.40699 -74.75,-96.40625 -15.652,-74.12333 -81.4363,-129.75 -160.2187,-129.75 z"
       transform="translate(0,-2047.5)"
       inkscape:connector-curvature="0" />
    <path
       style="fill:#a5caea;fill-opacity:1;stroke:none"
       d="m 1580,458.65625 c -42.3422,0 -79.6479,21.50021 -101.6562,54.15625 -8.8407,-3.30888 -18.4109,-5.125 -28.4063,-5.125 -30.5463,0 -57.1215,16.88639 -70.9375,41.84375 -9.4809,-3.88953 -19.8365,-6.0625 -30.7188,-6.0625 -44.765,0 -81.0624,36.29747 -81.0624,81.0625 0,44.76503 36.2974,81.0625 81.0624,81.0625 30.5463,0 57.1216,-16.91764 70.9376,-41.875 9.4808,3.88953 19.8365,6.0625 30.7187,6.0625 13.327,0 25.9094,-3.23871 37,-8.9375 22.4717,26.23579 55.8098,42.875 93.0625,42.875 20.9567,0 40.6874,-5.25731 57.9375,-14.53125 16.3849,11.52698 36.3507,18.28125 57.9063,18.28125 23.3658,0 44.8767,-7.93503 61.9687,-21.28125 13.8199,10.94917 31.2803,17.53125 50.2813,17.53125 44.765,0 81.0624,-36.29747 81.0624,-81.0625 0,-44.76503 -36.2974,-81.0625 -81.0624,-81.0625 -10.8344,0 -21.178,2.14286 -30.625,6 -18.313,-25.24215 -48.0547,-41.65625 -81.625,-41.65625 -6.121,0 -12.0863,0.57952 -17.9063,1.625 -22.3586,-29.695 -57.9033,-48.90625 -97.9375,-48.90625 z"
       transform="translate(0,-2047.5)"
       inkscape:connector-curvature="0" />
    <g
       transform="translate(-135.7645,33.941126)">
      <path
         transform="matrix(17.727438,0,0,17.727438,1126.3899,-2161.3613)"
         d="m 16.75,22.375 a 6.625,6.625 0 1 1 -13.25,0 6.625,6.625 0 1 1 13.25,0 z"
         sodipodi:ry="6.625"
         sodipodi:rx="6.625"
         sodipodi:cy="22.375"
         sodipodi:cx="10.125"
         style="fill:#a5caea;fill-opacity:1;stroke:none"
         sodipodi:type="arc" />
      <path
         sodipodi:type="arc"
         style="fill:#a5caea;fill-opacity:1;stroke:none"
         sodipodi:cx="10.125"
         sodipodi:cy="22.375"
         sodipodi:rx="6.625"
         sodipodi:ry="6.625"
         d="m 16.75,22.375 a 6.625,6.625 0 1 1 -13.25,0 6.625,6.625 0 1 1 13.25,0 z"
         transform="matrix(24.661807,0,0,24.661807,930.43856,-2349.7814)" />
      <path
         transform="matrix(20.33496,0,0,20.33496,842.66884,-2218.2758)"
         d="m 16.75,22.375 a 6.625,6.625 0 1 1 -13.25,0 6.625,6.625 0 1 1 13.25,0 z"
         sodipodi:ry="6.625"
         sodipodi:rx="6.625"
         sodipodi:cy="22.375"
         sodipodi:cx="10.125"
         style="fill:#a5caea;fill-opacity:1;stroke:none"
         sodipodi:type="arc" />
      <path
         sodipodi:type="arc"
         style="fill:#a5caea;fill-opacity:1;stroke:none"
         sodipodi:cx="10.125"
         sodipodi:cy="22.375"
         sodipodi:rx="6.625"
         sodipodi:ry="6.625"
         d="m 16.75,22.375 a 6.625,6.625 0 1 1 -13.25,0 6.625,6.625 0 1 1 13.25,0 z"
         transform="matrix(15.193271,0,0,15.193271,769.69633,-2088.8509)" />
      <path
         transform="matrix(24.661807,0,0,24.661807,930.43856,-2349.7814)"
         d="m 16.75,22.375 a 6.625,6.625 0 1 1 -13.25,0 6.625,6.625 0 1 1 13.25,0 z"
         sodipodi:ry="6.625"
         sodipodi:rx="6.625"
         sodipodi:cy="22.375"
         sodipodi:cx="10.125"
         style="fill:#a5caea;fill-opacity:1;stroke:none"
         sodipodi:type="arc" />
      <path
         sodipodi:type="arc"
         style="fill:#a5caea;fill-opacity:1;stroke:none"
         sodipodi:cx="10.125"
         sodipodi:cy="22.375"
         sodipodi:rx="6.625"
         sodipodi:ry="6.625"
         d="m 16.75,22.375 a 6.625,6.625 0 1 1 -13.25,0 6.625,6.625 0 1 1 13.25,0 z"
         transform="matrix(20.33496,0,0,20.33496,842.66884,-2218.2758)" />
      <path
         transform="matrix(15.193271,0,0,15.193271,769.69633,-2088.8509)"
         d="m 16.75,22.375 a 6.625,6.625 0 1 1 -13.25,0 6.625,6.625 0 1 1 13.25,0 z"
         sodipodi:ry="6.625"
         sodipodi:rx="6.625"
         sodipodi:cy="22.375"
         sodipodi:cx="10.125"
         style="fill:#a5caea;fill-opacity:1;stroke:none"
         sodipodi:type="arc" />
    </g>
  </g>
  <g
     inkscape:label="Slug"
     inkscape:groupmode="layer"
     transform="translate(0,1107.6369)"
     sodipodi:insensitive="true"
     style="display:inline">
    <path
       transform="translate(0,939.8631)"
       style="fill:#ffffff;fill-opacity:1;stroke:none"
       d="m 91.517918,-1845.0949 c -13.078348,43.2374 -2.403073,86.8546 26.947442,105.1986 29.35052,18.3442 57.15095,20.0134 90.17027,14.5102 33.01934,-2.938 87.73447,29.714 122.7445,96.5819 22.37265,42.7311 63.16451,158.9594 80.86417,246.372 17.69966,87.4123 21.10162,166.5295 15.59841,184.8735 -27.50309,-57.1311 -30.2316,-139.613 -106.23511,-157.45 -64.15891,-15.0572 -102.13062,20.316 -98.46181,57.0042 3.66882,36.6882 15.25378,57.9327 37.59384,80.968 11.55942,11.9193 41.71686,22.5569 56.37433,25.6702 18.40373,98.0551 51.28133,117.6401 60.69763,173.8634 9.53054,56.9064 12.31564,64.97737 25.15652,103.49977 12.84085,38.52241 29.26421,81.15907 73.28999,141.6938 44.02577,60.53639 81.41015,68.57751 117.9332,164.20527 34.29121,89.7839 109.9742,93.95951 161.71516,162.93004 53.76045,71.66195 88.14996,121.45253 144.61391,128.20846 69.30391,8.29152 119.97203,33.42312 169.68153,44.22697 47.3259,10.28646 158.5015,-21.3573 192.1681,-23.31907 48.6266,-2.83238 74.4457,27.54443 121.3219,23.6441 47.196,-3.92686 64.9907,-23.9343 140.2014,-14.76222 75.2106,9.17208 157.1099,23.28259 211.4669,17.75214 105.8021,-10.76405 142.7092,-31.79632 245.3697,-37.00174 101.261,-5.13411 215.8627,-1.94187 320.8087,8.55851 96.7091,9.6762 103.0568,10.13555 202.2733,22.37384 84.2831,10.39757 168.2711,-4.52883 266.9949,-9.55017 78.7538,-4.00481 175.6685,-44.51718 267.4607,-49.83038 91.7923,-5.31487 288.5318,51.77557 426.9797,37.39309 162.8043,-16.91304 110.0742,-0.81256 235.0077,-40.55714 80.7674,-25.69874 103.3478,-13.28467 212.4548,-29.93902 77.0806,-11.76235 128.5963,21.12845 203.5996,-8.9167 55.0411,-22.04881 117.3444,-29.2558 157.7014,-43.93179 40.357,-14.676 104.1793,-17.44371 107.8481,-54.13037 3.6689,-36.68832 -91.7451,-68.22097 -135.771,-93.90312 -24.2258,-14.13207 -49.9295,-55.75882 -81.8787,-64.77668 l 0,-24.14491 -16.5831,0 0,-37.10289 -73.5872,0 0,-145.36197 -118.1542,0 0,114.05982 -8.2915,0.005 0,-62.88455 -65.8139,0 0,33.56408 -6.7369,0 0,12.95633 -9.8462,0.002 0,-179.93926 -71.5143,0 0,33.16608 -9.8462,0 0,18.65592 -16.0648,0 0,18.02079 -21.7285,0 0,22.28429 -6.2186,0 -6.2187,-13.99277 0,-61.07866 -31.2989,0 0,-68.95394 -23.3199,0 0,-23.34229 -85.3374,0 0,22.7254 -13.4737,0 0,-47.16376 -40.9394,0 0,-5.6996 -7.2551,-7.2551 0,-5.1827 -34.7207,0 0,-58.5589 -36.2754,-17.1012 -70.4779,0 -36.2754,17.1012 0,43.5305 -5.7004,0 0,-148.7291 -5.7005,0 0,-30.575 -34.2025,0 0,-35.7572 -39.3847,0 0,35.7572 -34.2025,0 0,30.575 -6.2187,0 0,67.8868 -22.8017,0 -15.5466,5.7004 0,122.9405 -16.583,0 0,-39.1019 -11.4008,0 0,-181.7822 -78.7695,0 0,-140.9558 -31.6114,0 0,-13.4737 -3.6275,0 -34.7208,-37.3119 0,-14.5101 -16.0648,0 0,14.5101 -34.2025,37.3119 -4.1458,0 0,13.4737 -31.0932,0 0,153.3931 -7.7733,0 0,173.4968 -12.1104,21.4448 -6.0273,0 0,-92.334 -17.1013,0 0,-163.7576 -158.5753,0 0,103.1258 -39.9029,0 0,83.9517 -28.5021,0 0,15.4424 -5.1822,0 0,-283.3622 0,-10.3644 0,-156.5024 -11.9191,0 0,-10.8827 -102.0893,0 0,10.8827 -11.9191,0 0,156.5024 -19.6924,0 0,10.3644 -13.9919,0 0,180.3406 -14.5102,0 0,21.7652 -32.1296,0 0,116.5995 -29.5385,0 0,8.8094 -4.1458,0 c -3.1612,-37.7141 -12.793,-175.2512 -12.9555,-192.7775 -0.2554,-27.7288 4.7444,-98.0228 7.3287,-129.0368 3.0805,-36.9656 36.3552,-248.6812 39.8058,-270.6697 14.2138,-1.2139 26.6907,-2.8277 36.0843,-4.8114 26.7402,-5.6472 33.0774,-11.3381 33.0774,-13.8322 0,-2.4951 -3.1126,-3.9544 -19.245,-6.6155 1.2554,-5.9853 3.3004,-16.8535 4.8113,-23.4549 10.5816,-1.4261 7.493,-1.9908 15.6365,-3.007 4.9895,-0.3333 18.0126,-2.1193 24.6578,-3.007 9.342,-1.2504 12.6295,-4.0826 12.6295,-5.4127 0,-0.9137 -0.7695,-4.0569 -16.238,-7.2169 -15.4673,-3.1601 -12.2214,-4.3896 -18.0422,-7.217 -0.5936,-0.2869 -1.2337,-0.2355 -1.8032,-0.6019 l 3.007,-16.238 c -30.6014,-14.4694 -75.7671,-28.5868 -88.4068,-33.0774 -12.6398,-4.4903 -24.0562,-6.0926 -24.0562,-15.6364 0,-10.1323 17.7359,-14.257 16.2379,-19.8465 -0.4527,-1.6916 -5.0832,-3.8335 -13.2309,-4.2099 -2.8263,-0.1161 -3.6083,-12.6295 -3.6085,-12.6295 0,0 -4.8175,-3.6046 -34.8816,-3.6084 -0.7081,-5.1272 -0.6003,-14.4338 -0.6003,-14.4338 0,-0.6168 -4.7549,-1.1376 -10.8253,-1.2022 l 0,-104.6448 3.6084,-3.007 -3.6084,0 1.2023,-5.4127 -1.2023,-6.014 -2.4057,0 -0.6003,6.014 0.6003,5.4127 -3.6084,0 3.6084,3.007 0,104.6448 c -6.07,0.083 -10.8252,0.5887 -10.8252,1.2022 0,0 0.1161,9.3066 -0.6003,14.4338 -30.0641,0.01 -34.8819,3.6084 -34.8816,3.6084 -3e-4,0 -0.7844,12.499 -3.6085,12.6295 -8.1474,0.3798 -12.778,2.5195 -13.2309,4.2099 -1.4991,5.5895 16.2379,9.7141 16.2379,19.8465 0,9.5437 -11.4169,11.1461 -24.0562,15.6364 -12.64,4.4906 -57.8051,18.608 -88.4068,33.0774 l 3.007,16.238 c -0.5738,0.3631 -0.6136,0.315 -1.2023,0.6019 -5.8206,2.8278 -2.5753,4.0572 -18.0421,7.217 -15.4675,3.1602 -16.8395,6.3017 -16.8395,7.2169 0,1.33 3.2875,4.163 12.6295,5.4127 6.6453,0.8889 19.6685,2.6745 24.6578,3.007 8.1441,1.0199 5.0549,1.5804 15.6365,3.007 1.5107,6.6011 3.5574,17.4696 4.8113,23.4549 -16.1324,2.6609 -19.245,4.1207 -19.245,6.6155 0,2.4942 6.3372,8.1855 33.0774,13.8322 9.3662,1.9792 21.9221,3.5987 36.0843,4.8114 l 42.9887,259.7871 -138.8829,0 0,119.1906 -30.575,0 0,202.8882 -59.0771,0 0,27.9839 -19.6923,0 0,-46.1216 -88.6157,0 0,-75.3044 -3.6275,0 0,-67.3686 -4.1458,0 0,-9.8462 -11.919,0 0,-32.1296 -16.5831,0 -21.247,-28.5021 -50.2673,0 -21.7653,28.5021 -16.583,0 0,32.1296 -11.4009,0 0,9.8462 -4.6639,0 0,22.8017 -43.5305,0 0,43.5305 -46.1216,0 0,4.6639 7.7733,0 0,99.3764 -11.9191,0 0,-139.2793 -83.9516,0 0,-5.1822 -35.239,0 0,5.1822 -50.7855,0 0,168.6429 -15.0284,0 0,-357.3766 -2.5911,0 0,-77.733 -6.2186,0 0,-14.5102 -6.2187,0 0,-63.2229 0,-21.247 -2.0729,0 0,84.4699 -10.8826,0 0,-8.8098 -25.911,0 0,-6.7368 -141.9923,-13.992 0,44.0488 -18.1377,0 0,374.9246 -111.9355,0 0,36.4232 -62.1864,0 0,-141.3552 3.6275,0 0,-35.239 -80.3241,0 0,-19.1741 -62.7046,0 0,19.1741 -47.67624,0 0,35.239 3.62754,0 0,111.9355 c -38.13073,-28.1111 -39.25743,-67.6049 -35.75718,-102.6076 5.50323,-55.0321 17.86711,-61.338 4.14576,-85.5063 -18.11367,-31.9047 -34.71157,-19.9628 -60.63174,-13.9919 -23.8473,-22.0128 21.22868,-128.0552 68.92326,-192.2596 47.69458,-64.2043 170.5173,-176.9422 214.5431,-202.6241 44.0258,-25.6816 51.709,-30.729 66.3842,-34.0768 12.0842,2.3527 39.8741,20.5792 67.3902,18.7448 27.5161,-1.8344 84.1879,-28.5397 84.1879,-81.7376 0,-53.1978 -39.6865,-80.9478 -72.6981,-85.166 -24.38,-3.1153 -71.6999,10.0536 -103.2884,28.3243 -48.607,28.1142 -154.9374,89.2602 -224.78065,139.2413 -57.80039,41.3631 -326.78327,231.626 -331.28468,322.3581 -33.16609,-5.9251 -80.95785,-106.4021 -106.36716,-156.7945 -34.60929,-68.6379 -104.04646,-160.9817 -157.6932,-215.2983 -52.13947,-52.7904 -81.851,-60.2302 -103.86389,-106.0905 -22.01288,-45.86 -44.44942,-74.9868 -71.51437,-82.397 -46.67905,-12.7802 -102.07553,17.2366 -115.044832,60.1136 z m 1433.914782,308.8591 c 1.5151,8.9174 0.9342,14.4277 0,21.247 9.4785,-1.2155 24.8746,0 24.8746,0 2.0192,-4.5502 -0.9238,-9.6011 -2.0729,-14.5101 0,0 -6.3849,-2.4509 -11.4008,-3.1094 -4.8773,-0.6401 -6.7851,-4.033 -11.4009,-3.6275 z m 762.5171,-85.499 c 0.7711,0.033 1.6234,-0.033 2.4057,0 1.0629,10.1369 3.5539,34.1569 7.8182,74.5744 -5.5089,-40.5263 -8.9311,-65.1065 -10.2239,-74.5744 z m 144.3376,0 c 1.0215,-0.083 1.9976,0.083 3.007,0 -4.5114,30.9158 -12.0282,75.7772 -12.0282,75.7772 z m -130.5052,0.602 c 10.8725,0.529 22.4639,1.0314 33.6786,1.2022 l 3.5773,256.7803 -4.1457,0 z m 117.8757,0 c -1.7205,13.7889 -7.6801,63.312 -13.8324,114.2672 -3.5783,29.6372 -18.6437,168.0947 -18.6437,144.8018 l 0,-257.8663 c 10.8523,-0.1741 21.9301,-0.6981 32.4761,-1.2023 z m -43.0869,422.9448 c 2.7891,21.4274 8.8741,99.869 9.651,113.3883 0.1907,3.6942 -0.2736,4.3826 0,9.8749 l -9.651,0 z m 0,143.7889 11.3614,0 c 0.3516,7.7709 0.5058,15.6983 0.854,23.9465 l -12.2167,0 z"
       inkscape:connector-curvature="0"
       sodipodi:nodetypes="sscsscssscsssssssssssssssssssssssccccccccccccccccccccccccccccccccccccccccccccccccccccccccccccccccccccccccccccccccccccccccccccccccccccccccccccccccccsccsccccsccccssccccccccccccccccccccccscccccsccccsccccccccccccccccccccccccccccccccccccccccccccccccccccccccccccccccccccccccccccscsscssssscssssscccccccccccccccccccccsccccccccccccc" />
    <g
       transform="translate(0,939.8631)"
       style="font-size:828.43725586px;font-style:normal;font-variant:normal;font-weight:normal;font-stretch:normal;text-align:center;line-height:100%;letter-spacing:0px;word-spacing:0px;writing-mode:lr-tb;text-anchor:middle;fill:#3589d1;fill-opacity:1;stroke:none;font-family:Sorts Mill Goudy;-inkscape-font-specification:Sorts Mill Goudy">
      <path
         d="m 1305.6915,-674.36889 66.275,-0.82843 12.4266,0 c 8.836,3e-4 13.2543,2.48561 13.255,7.45593 -7e-4,3.86633 -7.1805,8.83695 -21.5394,14.91187 -13.8079,6.07548 -21.54,13.80756 -23.1963,23.19625 -3.8666,23.74876 -5.7996,49.43029 -5.799,77.04466 -6e-4,27.06244 0.2755,46.94491 0.8284,59.64748 0.5517,12.70282 0.8279,21.81562 0.8285,27.33843 0.5516,4.97071 1.1039,9.38904 1.6568,13.255 0.5517,3.86611 0.8279,6.90372 0.8285,9.11281 -6e-4,2.20923 -2.2098,4.14225 -6.6275,5.79906 -3.8667,1.10465 -10.4942,3.03766 -19.8825,5.79906 -9.3895,2.20922 -17.9501,5.79911 -25.6816,10.76968 -7.7326,4.41838 -13.5317,7.73213 -17.3972,9.94125 -3.8665,2.2092 -9.1133,4.97066 -15.7403,8.28437 -6.0757,3.31378 -12.427,6.62753 -19.054,9.94125 -6.628,3.31377 -14.0839,6.90366 -22.3678,10.76968 -8.2849,3.31376 -16.8454,6.35136 -25.6816,9.11281 -8.8371,2.76146 -17.9499,5.24677 -27.3384,7.45594 -20.9875,4.97061 -40.87,7.45592 -59.6475,7.45594 -60.2001,-2e-5 -112.66772,-8.00824 -157.40307,-24.02469 -44.18349,-16.56871 -78.42553,-38.66035 -102.72622,-66.27498 -47.49713,-54.67672 -71.24565,-120.1232 -71.24561,-196.33963 -4e-5,-60.19944 11.87422,-114.32395 35.6228,-162.3737 24.30073,-48.04888 61.30423,-86.70924 111.0106,-115.98121 49.706,-29.82316 108.8011,-44.73502 177.2856,-44.73562 65.7222,6e-4 122.6082,12.42715 170.658,37.27968 11.0453,6.07576 19.3297,11.32252 24.8532,15.74031 6.0746,3.86658 9.6645,5.7996 10.7696,5.79906 1.6564,5.4e-4 5.2462,-1.93248 10.7697,-5.79906 6.0747,-4.41779 10.2168,-6.62695 12.4266,-6.6275 8.2838,5.5e-4 12.4259,6.90419 12.4265,20.71093 0.5517,13.25551 1.6563,28.71966 3.3138,46.39249 2.2086,17.67379 4.1416,32.3095 5.7991,43.90717 1.6562,11.59855 2.4847,18.50219 2.4853,20.71093 -6e-4,9.38937 -3.3144,14.08384 -9.9413,14.08344 -6.6281,4e-4 -11.3225,-3.31334 -14.0834,-9.94125 -19.3308,-41.9737 -51.6398,-77.32032 -96.9272,-106.03997 -45.2883,-29.2709 -91.9569,-43.90661 -140.0059,-43.90717 -69.0367,5.6e-4 -126.1988,21.81605 -171.48648,65.44654 -44.73575,43.07919 -67.10353,103.00276 -67.10342,179.77089 -1.1e-4,50.81108 9.38884,98.58425 28.16687,143.31964 18.77775,44.73574 47.22073,81.73924 85.32904,111.01059 38.66009,29.27149 80.91039,43.9072 126.75089,43.90718 46.3921,2e-5 86.7093,-9.66507 120.9518,-28.99531 34.7939,-19.33013 54.1241,-41.42177 57.9907,-66.27498 1.6563,-13.25486 2.4847,-48.04919 2.4853,-104.38309 -6e-4,-21.53913 -4.1428,-36.17484 -12.4266,-43.90718 -7.7326,-8.2841 -20.1591,-13.25472 -37.2797,-14.91187 -17.1215,-2.20888 -26.7866,-4.97034 -28.9953,-8.28437 -1.6573,-3.86575 -2.4857,-7.45564 -2.4853,-10.76968 -4e-4,-6.07491 4.9702,-9.11251 14.9119,-9.11281 l 91.9565,4.14218"
         inkscape:connector-curvature="0" />
      <path
         d="m 1798.9094,-942.78256 19.0541,-6.6275 c 7.1794,5.8e-4 11.3216,2.20975 12.4265,6.6275 11.5977,66.82778 17.3968,106.31658 17.3972,118.46653 -4e-4,11.59856 -3.8664,17.39762 -11.5981,17.39718 -4.971,4.4e-4 -9.9416,-5.79862 -14.9119,-17.39718 -4.4187,-12.14995 -9.9416,-23.19577 -16.5687,-33.13749 -6.0756,-9.94075 -10.4939,-16.2921 -13.255,-19.05406 -2.7618,-2.76095 -9.9416,-9.38844 -21.5394,-19.88249 -29.824,-26.50944 -64.0661,-39.76443 -102.7262,-39.76499 -38.1083,5.6e-4 -68.7605,8.28493 -91.9565,24.85312 -23.1964,16.56927 -34.7945,38.10861 -34.7944,64.6181 -10e-5,26.51044 6.6274,47.77365 19.8825,63.78967 13.8071,16.01685 32.0327,28.4434 54.6769,37.27968 22.6437,8.83703 46.3922,17.12139 71.2456,24.85312 66.8269,20.9874 116.2569,48.3258 148.2902,82.01529 22.0913,23.74877 33.1371,53.29634 33.1375,88.64278 -4e-4,57.99073 -18.5022,104.10702 -55.5053,138.34902 -37.0039,33.68979 -82.844,50.53467 -137.5206,50.53468 -38.1083,-10e-6 -68.7604,-2.20918 -91.9565,-6.6275 -23.1964,-3.86604 -46.9449,-12.15041 -71.2456,-24.85312 -7.1799,-4.41831 -15.7404,-25.95765 -25.6816,-64.61811 -9.9413,-38.66028 -14.9119,-62.68493 -14.9118,-72.07404 -1e-4,-9.94108 3.5898,-14.9117 10.7697,-14.91187 7.732,1.7e-4 12.4264,2.76163 14.0834,8.28438 20.4347,49.15405 44.4593,83.94838 72.074,104.38309 29.8236,22.64399 65.7225,33.96595 107.6969,33.96593 42.5261,2e-5 76.2159,-10.76965 101.0693,-32.30906 25.405,-22.09158 38.1077,-50.81071 38.1081,-86.15747 -4e-4,-25.95753 -8.5609,-47.49688 -25.6815,-64.61811 -17.1214,-17.6731 -36.7277,-30.37579 -58.8191,-38.10811 -82.2916,-27.6143 -138.073,-49.98208 -167.3443,-67.10342 -50.2586,-29.8234 -75.3878,-69.86449 -75.3878,-120.1234 0,-50.25804 17.6733,-90.02299 53.02,-119.29497 35.8988,-29.82315 82.2912,-44.73501 139.1775,-44.73561 20.9868,6e-4 45.8399,4.69507 74.5593,14.08344 29.2711,8.83724 44.183,13.25556 44.7356,13.25499"
         inkscape:connector-curvature="0" />
      <path
         d="m 2010.7434,-666.08451 2.4853,-143.31965 c -10e-5,-14.91142 -0.5524,-40.04066 -1.6569,-75.38779 -0.5524,-16.01592 -7.456,-28.44247 -20.7109,-37.27968 -13.2551,-8.8361 -25.6816,-13.25443 -37.2797,-13.25499 -11.5981,-0.55173 -18.2256,-1.65631 -19.8825,-3.31375 -1.1046,-2.2086 -1.6569,-5.2462 -1.6569,-9.11281 0,-9.94066 7.456,-14.91128 22.3678,-14.91187 l 22.3679,1.65687 72.074,3.31375 86.9859,-3.31375 c 9.3887,5.9e-4 14.0832,2.76205 14.0834,8.28438 -2e-4,7.73265 -3.3139,12.97941 -9.9412,15.7403 -6.6277,2.20973 -14.0836,3.8666 -22.3678,4.97063 -7.7323,0.55285 -15.4644,6.62805 -23.1963,18.22562 -7.1799,11.04636 -11.3221,27.61509 -12.4265,49.70623 -1.1048,22.09213 -2.4855,82.56799 -4.1422,181.42776 -1.657,98.86039 -2.4855,154.08949 -2.4853,165.68745 l 0,33.13749 c -2e-4,39.76506 6.6273,61.8567 19.8825,66.27498 13.8071,3.86608 25.6813,5.7991 35.6228,5.79906 82.8434,4e-5 142.4908,-6.62745 178.9424,-19.88249 33.1371,-12.15034 53.0196,-24.85303 59.6475,-38.10811 7.1793,-13.80718 13.5307,-20.71082 19.0541,-20.71094 6.627,1.2e-4 9.9407,4.6946 9.9412,14.08344 -5e-4,23.74861 -11.8747,47.77327 -35.6228,72.07404 -23.7489,24.30083 -44.4599,36.45123 -62.1328,36.45124 -39.7653,-10e-6 -84.777,-1.38073 -135.0353,-4.14219 -49.7064,-2.76145 -80.6347,-4.14218 -92.7849,-4.14218 l -103.5547,6.62749 c -16.0165,0 -24.0247,-3.31374 -24.0247,-9.94124 0,-3.86603 1.3807,-6.90363 4.1422,-9.11281 3.3137,-2.76144 7.7321,-4.14217 13.255,-4.14219 5.5229,2e-5 12.7027,-3.31372 21.5394,-9.94125 8.8366,-6.62746 15.4641,-20.15859 19.8825,-40.59342 4.4182,-20.98699 6.6274,-61.02808 6.6275,-120.1234 l 0,-102.72622"
         inkscape:connector-curvature="0" />
      <path
         d="m 2485.6192,-729.04575 1.6568,-119.29496 c -10e-5,-30.37553 -3.5899,-51.08644 -10.7696,-62.13279 -7.1799,-11.59758 -24.0248,-19.32965 -50.5347,-23.19625 -12.1504,-1.65631 -18.2256,-6.90307 -18.2256,-15.74031 0,-4.41775 1.6568,-7.1792 4.9706,-8.28437 3.3137,-1.65629 8.0082,-2.48472 14.0834,-2.48531 l 93.6134,3.31375 77.8731,-1.65688 c 11.5979,5.9e-4 17.397,3.86663 17.3972,11.59813 -2e-4,4.97119 -1.9332,8.00879 -5.799,9.11281 -3.8663,1.10514 -8.8369,1.93358 -14.9119,2.48531 -5.5231,0.55285 -11.046,2.48587 -16.5688,5.79906 -13.8074,7.73263 -20.7111,33.41416 -20.7109,77.04466 l 0,23.19625 -0.8284,178.94244 c -2e-4,54.67709 1.6567,90.29985 4.9706,106.86841 3.3136,16.5689 7.1796,32.03305 11.5981,46.39249 4.4182,13.80739 9.6649,24.85321 15.7403,33.13749 6.6273,8.28445 14.6355,17.39725 24.0247,27.33843 9.941,9.9413 21.263,17.67337 33.9659,23.19624 29.8235,12.15044 63.7894,18.22564 101.8978,18.22562 59.6471,2e-5 101.0689,-6.62747 124.2656,-19.8825 9.9408,-5.52286 21.2627,-14.08337 33.9659,-25.68155 13.2545,-12.15033 23.4719,-26.78604 30.6522,-43.90718 17.1205,-40.86941 25.681,-92.78476 25.6816,-155.7462 l -0.8285,-175.6287 c -5e-4,-19.32974 -0.5528,-34.51774 -1.6568,-45.56405 -0.5529,-11.04533 -3.3144,-23.19573 -8.2844,-36.45124 -4.4189,-13.25445 -10.218,-22.36725 -17.3972,-27.33843 -7.1803,-4.97006 -15.1885,-8.00766 -24.0247,-9.11281 -8.8372,-1.65631 -16.0169,-2.76089 -21.5394,-3.31374 -5.5234,-1.10402 -8.2848,-3.58933 -8.2843,-7.45594 -5e-4,-8.83608 5.5224,-13.25441 16.5687,-13.255 l 63.7897,1.65688 70.4172,-2.48531 c 11.5974,5.8e-4 17.3965,3.59048 17.3971,10.76968 -6e-4,4.41891 -6.0758,10.21796 -18.2256,17.39718 -11.5987,6.62805 -18.7785,12.70326 -21.5393,18.22562 -6.0759,11.59865 -9.1135,29.82426 -9.1129,54.67686 l 0.8285,55.5053 c -6e-4,106.04029 -4.419,187.22706 -13.255,243.56055 -8.8373,56.33387 -22.3684,97.2034 -40.5934,122.60872 -37.0041,53.57228 -102.4506,80.35839 -196.3397,80.35841 -93.8898,-2e-5 -160.1647,-17.67333 -198.8249,-53.01998 -30.3762,-28.16681 -49.1541,-61.85655 -56.3337,-101.06935 -7.1799,-39.76481 -10.7698,-107.97274 -10.7697,-204.624 l 0,-14.08344"
         inkscape:connector-curvature="0" />
      <path
         d="m 3627.5812,-674.36889 66.275,-0.82843 12.4265,0 c 8.836,3e-4 13.2544,2.48561 13.255,7.45593 -6e-4,3.86633 -7.1804,8.83695 -21.5394,14.91187 -13.8079,6.07548 -21.5399,13.80756 -23.1962,23.19625 -3.8667,23.74876 -5.7997,49.43029 -5.7991,77.04466 -6e-4,27.06244 0.2756,46.94491 0.8285,59.64748 0.5517,12.70282 0.8278,21.81562 0.8284,27.33843 0.5517,4.97071 1.104,9.38904 1.6569,13.255 0.5517,3.86611 0.8278,6.90372 0.8284,9.11281 -6e-4,2.20923 -2.2098,4.14225 -6.6275,5.79906 -3.8666,1.10465 -10.4941,3.03766 -19.8825,5.79906 -9.3895,2.20922 -17.95,5.79911 -25.6815,10.76968 -7.7327,4.41838 -13.5317,7.73213 -17.3972,9.94125 -3.8666,2.2092 -9.1133,4.97066 -15.7403,8.28437 -6.0757,3.31378 -12.4271,6.62753 -19.0541,9.94125 -6.628,3.31377 -14.0839,6.90366 -22.3678,10.76968 -8.2848,3.31376 -16.8453,6.35136 -25.6815,9.11281 -8.8371,2.76146 -17.9499,5.24677 -27.3385,7.45594 -20.9874,4.97061 -40.8699,7.45592 -59.6474,7.45594 -60.2001,-2e-5 -112.6678,-8.00824 -157.4031,-24.02469 -44.1835,-16.56871 -78.4256,-38.66035 -102.7262,-66.27498 -47.4972,-54.67672 -71.2457,-120.1232 -71.2457,-196.33963 0,-60.19944 11.8743,-114.32395 35.6229,-162.3737 24.3007,-48.04888 61.3042,-86.70924 111.0105,-115.98121 49.706,-29.82316 108.8012,-44.73502 177.2856,-44.73562 65.7223,6e-4 122.6082,12.42715 170.6581,37.27968 11.0453,6.07576 19.3296,11.32252 24.8531,15.74031 6.0747,3.86658 9.6645,5.7996 10.7697,5.79906 1.6563,5.4e-4 5.2462,-1.93248 10.7697,-5.79906 6.0746,-4.41779 10.2168,-6.62695 12.4265,-6.6275 8.2838,5.5e-4 12.426,6.90419 12.4266,20.71093 0.5517,13.25551 1.6563,28.71966 3.3137,46.39249 2.2086,17.67379 4.1416,32.3095 5.7991,43.90717 1.6563,11.59855 2.4847,18.50219 2.4853,20.71093 -6e-4,9.38937 -3.3143,14.08384 -9.9412,14.08344 -6.6281,4e-4 -11.3226,-3.31334 -14.0835,-9.94125 -19.3307,-41.9737 -51.6398,-77.32032 -96.9271,-106.03997 -45.2884,-29.2709 -91.957,-43.90661 -140.0059,-43.90717 -69.0367,5.6e-4 -126.1989,21.81605 -171.4865,65.44654 -44.7358,43.07919 -67.1036,103.00276 -67.1034,179.77089 -2e-4,50.81108 9.3888,98.58425 28.1668,143.31964 18.7778,44.73574 47.2208,81.73924 85.3291,111.01059 38.6601,29.27149 80.9104,43.9072 126.7509,43.90718 46.392,2e-5 86.7093,-9.66507 120.9518,-28.99531 34.7938,-19.33013 54.124,-41.42177 57.9906,-66.27498 1.6563,-13.25486 2.4848,-48.04919 2.4853,-104.38309 -5e-4,-21.53913 -4.1427,-36.17484 -12.4265,-43.90718 -7.7326,-8.2841 -20.1592,-13.25472 -37.2797,-14.91187 -17.1215,-2.20888 -26.7866,-4.97034 -28.9953,-8.28437 -1.6574,-3.86575 -2.4858,-7.45564 -2.4853,-10.76968 -5e-4,-6.07491 4.9701,-9.11251 14.9118,-9.11281 l 91.9566,4.14218"
         inkscape:connector-curvature="0" />
    </g>
  </g>
  <g
     inkscape:groupmode="layer"
     inkscape:label="Subtitle"
     transform="translate(0,2047.5)"
     sodipodi:insensitive="true"
     style="display:inline">
    <g
       style="font-size:248.3480072px;font-style:normal;font-variant:normal;font-weight:normal;font-stretch:normal;text-align:center;line-height:100%;letter-spacing:0px;word-spacing:0px;writing-mode:lr-tb;text-anchor:middle;fill:#ffffff;fill-opacity:1;stroke:none;font-family:Sorts Mill Goudy;-inkscape-font-specification:Sorts Mill Goudy">
      <path
         d="m 556.80792,-105.18367 19.86784,-0.24834 3.72522,0 c 2.64885,9e-5 3.97337,0.74513 3.97357,2.23513 -2e-4,1.15904 -2.15255,2.64913 -6.45705,4.470263 -4.13932,1.821301 -6.45723,4.139213 -6.95375,6.953744 -1.15913,7.119379 -1.73861,14.81816 -1.73843,23.096364 -1.8e-4,8.112748 0.0826,14.073094 0.24835,17.881057 0.16538,3.808035 0.24816,6.53986 0.24834,8.195484 0.16539,1.490115 0.33095,2.814636 0.4967,3.973568 0.16538,1.158981 0.24817,2.069589 0.24835,2.731828 -1.8e-4,0.662282 -0.66244,1.241761 -1.98679,1.738436 -1.15913,0.33115 -3.14591,0.910628 -5.96035,1.738436 -2.81478,0.662279 -5.38104,1.738453 -7.69879,3.228525 -2.31807,1.324536 -4.05651,2.317927 -5.2153,2.980176 -1.15912,0.662272 -2.73199,1.490098 -4.71862,2.48348 -1.82137,0.9934 -3.72537,1.986791 -5.712,2.980176 -1.98693,0.993397 -4.22206,2.069571 -6.7054,3.228524 -2.48362,0.993394 -5.04988,1.904002 -7.69878,2.731828 -2.64918,0.827826 -5.38101,1.572869 -8.19549,2.235132 -6.2916,1.490085 -12.25195,2.235128 -17.88106,2.235132 -18.04671,-4e-6 -33.7754,-2.400699 -47.18612,-7.202092 -13.24527,-4.966952 -23.51031,-11.589559 -30.79515,-19.867841 -14.23864,-16.390929 -21.35794,-36.010402 -21.35793,-58.858477 -10e-6,-18.046523 3.55964,-34.271913 10.67897,-48.676213 7.28484,-14.40404 18.37771,-25.9936 33.27863,-34.76872 14.90081,-8.94035 32.61628,-13.41061 53.14647,-13.41079 19.70215,1.8e-4 36.75536,3.72539 51.15969,11.17566 3.31115,1.82138 5.79462,3.39425 7.45044,4.71861 1.82105,1.15912 2.89723,1.7386 3.22853,1.73844 0.49652,1.6e-4 1.5727,-0.57932 3.22852,-1.73844 1.82104,-1.32436 3.06278,-1.98662 3.72522,-1.98678 2.4833,1.6e-4 3.72504,2.06973 3.72522,6.2087 0.16539,3.97372 0.49652,8.60955 0.99339,13.90749 0.66208,5.29823 1.24156,9.6857 1.73844,13.16244 0.49651,3.477 0.74486,5.54657 0.74504,6.2087 -1.8e-4,2.81473 -0.99357,4.22204 -2.98017,4.22192 -1.98697,1.2e-4 -3.39427,-0.99327 -4.22192,-2.98018 -5.79496,-12.58283 -15.48052,-23.179 -29.05672,-31.78854 -13.57649,-8.7748 -27.56675,-13.16228 -41.97081,-13.16245 -20.69575,1.7e-4 -37.83175,6.54 -51.40804,19.61949 -13.41083,12.91424 -20.11622,30.87806 -20.11619,53.89152 -3e-5,15.232093 2.81458,29.553481 8.44384,42.964207 5.62917,13.410832 14.15578,24.503698 25.57984,33.278633 11.5895,8.774974 24.25523,13.162451 37.99725,13.162445 13.90736,6e-6 25.99362,-2.897385 36.25881,-8.69218 10.43046,-5.794767 16.22524,-12.417374 17.38436,-19.867841 0.49653,-3.97353 0.74488,-14.404136 0.74504,-31.291849 -1.6e-4,-6.456976 -1.2419,-10.844453 -3.72522,-13.162444 -2.31807,-2.483399 -6.04329,-3.973485 -11.17566,-4.470264 -5.13267,-0.662178 -8.03006,-1.490004 -8.69218,-2.483477 -0.49683,-1.15887 -0.74518,-2.23505 -0.74504,-3.22853 -1.4e-4,-1.82113 1.48995,-2.73173 4.47026,-2.73183 l 27.56663,1.24174"
         inkscape:connector-curvature="0" />
      <path
         d="m 604.57998,-104.68697 -2.73183,-0.24835 c -3.14575,9e-5 -4.71861,-1.32443 -4.71861,-3.97357 0,-1.82112 1.07617,-3.14564 3.22852,-3.97356 2.31791,-0.9933 6.45704,-2.4006 12.41741,-4.22192 6.12589,-1.98668 10.92728,-3.72511 14.40418,-5.21531 3.47683,-1.65554 5.5464,-2.48337 6.2087,-2.48348 2.15231,1.1e-4 3.22848,1.65576 3.22852,4.96696 l -0.24834,6.7054 c -5e-5,5.96044 0.16552,9.27175 0.49669,9.93392 0.49665,0.49678 0.91057,0.74513 1.24174,0.74504 0.49665,9e-5 1.82117,-1.65556 3.97357,-4.96696 2.1523,-3.31121 5.21525,-6.62251 9.18888,-9.93392 3.9735,-3.47676 7.86428,-5.2152 11.67235,-5.21531 3.9735,1.1e-4 8.02984,1.40742 12.16905,4.22192 4.13905,2.64915 6.20862,5.38097 6.20871,8.19548 -9e-5,2.64914 -0.66236,5.13262 -1.98679,7.45044 -2.318,3.973657 -4.47035,5.960439 -6.45705,5.960357 -1.3246,8.2e-5 -3.72529,-0.993309 -7.20209,-2.980176 -3.31138,-1.986701 -7.20216,-2.980091 -11.67236,-2.980181 -4.47032,9e-5 -8.69223,1.82131 -12.66574,5.463661 -3.80805,3.642516 -5.71205,6.95382 -5.71201,9.93392 l 0,25.828193 0.24835,21.606276 0.24835,4.470264 c -5e-5,3.47689 1.15891,6.457063 3.47687,8.940529 2.31786,2.483489 4.47021,3.890793 6.45705,4.221916 2.15229,0.331138 3.97351,0.579486 5.46365,0.745044 1.49003,0.165572 2.64899,0.331137 3.47688,0.496696 0.82776,6e-6 1.73837,0.165571 2.73182,0.496696 1.82116,0.331136 2.73176,1.572875 2.73183,3.72522 -7e-5,1.986784 -0.99346,2.980175 -2.98017,2.980176 l -21.10958,-1.24174 -25.8282,1.24174 c -2.98019,-1e-6 -4.63584,-0.331131 -4.96696,-0.993392 -0.33114,-0.66226 -0.49671,-1.324521 -0.49669,-1.986784 -2e-5,-2.152345 1.07616,-3.559649 3.22852,-4.221916 4.30468,-0.993385 6.87094,-3.062949 7.69879,-6.2087 0.99337,-3.311291 1.49006,-10.265028 1.49009,-20.861233 l -0.24835,-39.984029 -0.24835,-7.45044 c -2e-5,-1.821136 -0.24837,-3.311223 -0.74504,-4.470265 -1.32455,-3.145652 -5.21533,-4.718522 -11.67236,-4.718612"
         inkscape:connector-curvature="0" />
      <path
         d="m 746.88338,-9.8180309 c -14.5698,-4.7e-6 -26.98719,-4.4702641 -37.2522,-13.4107921 -10.0995,-8.940511 -15.14924,-21.854594 -15.14923,-38.742289 -10e-6,-17.053166 4.63582,-31.291771 13.90749,-42.715858 9.43719,-11.42391 21.60623,-17.1359 36.50716,-17.13601 6.95367,1.1e-4 13.24515,1.24184 18.87444,3.72522 5.79471,2.48358 10.26497,5.54653 13.4108,9.18887 3.14564,3.47697 5.79469,7.20218 7.94713,11.175665 3.64234,6.788255 5.46355,11.920775 5.46366,15.397576 -1.1e-4,2.980241 -3.39419,4.470327 -10.18227,4.470264 l -63.82544,0 c -1.32455,6.3e-5 -2.15238,0.165629 -2.48348,0.496696 -0.16559,0.165628 -0.24837,0.910671 -0.24835,2.235132 -2e-5,15.563187 4.1391,27.81501 12.4174,36.755505 8.44379,8.940543 18.29491,13.410803 29.55342,13.410793 6.95366,10e-6 13.99018,-1.821207 21.10958,-5.463656 7.28477,-3.807984 11.09277,-5.711983 11.42401,-5.712005 1.65554,2.2e-5 2.48337,0.745065 2.48348,2.235132 -1.1e-4,1.986802 -1.82133,4.718627 -5.46366,8.195485 -3.64253,3.311314 -7.1194,6.04314 -10.43062,8.195484 -7.94721,5.132523 -17.30165,7.6987834 -28.06332,7.6987881 m -28.31167,-74.0077061 43.70925,-1.490088 c 2.31783,7.1e-5 3.72513,-0.165494 4.22191,-0.496696 0.66218,-0.496624 0.99331,-1.32445 0.99339,-2.48348 -8e-5,-4.966882 -2.31799,-10.761663 -6.95374,-17.384359 -4.6359,-6.62252 -11.09294,-9.93382 -19.37114,-9.93392 -8.27832,10e-5 -14.65258,3.3114 -19.1228,9.93392 -4.4703,6.457131 -6.70543,12.583043 -6.7054,18.377751 -3e-5,2.317985 1.07615,3.476941 3.22853,3.476872"
         inkscape:connector-curvature="0" />
      <path
         d="m 841.95022,-10.811423 c -19.53673,-4e-6 -29.30508,-8.278262 -29.30507,-24.834801 -10e-6,-11.920671 4.96695,-20.116147 14.90088,-24.586452 8.27823,-3.476823 20.94397,-6.622562 37.99725,-9.437225 0.49663,-0.16551 1.15889,-0.248292 1.98678,-0.248348 0.82776,-0.165509 1.65559,-0.331075 2.48348,-0.496696 0.99332,-0.165509 1.73837,-0.331074 2.23513,-0.496696 1.15889,-0.496639 1.73837,-1.655595 1.73844,-3.476872 l 0.4967,-12.914096 c -8e-5,-9.437142 -2.7319,-16.225311 -8.19549,-20.364541 -5.46371,-4.3046 -10.7618,-6.45694 -15.89427,-6.45704 -11.92074,1e-4 -17.88109,4.96705 -17.88106,14.900877 l 0.99339,8.940528 c -3e-5,3.311379 -1.49011,4.967031 -4.47026,4.96696 -2.31794,7.1e-5 -4.8842,-0.413842 -7.69879,-1.24174 -5.13254,-1.65558 -7.6988,-4.470188 -7.69879,-8.443832 -1e-5,-6.456963 4.30469,-12.582873 12.9141,-18.377753 8.77493,-5.96025 17.54988,-8.94042 26.32489,-8.94053 8.7749,1.1e-4 15.64586,0.82794 20.61288,2.48348 4.96689,1.65576 8.60932,3.55976 10.92732,5.71201 2.48339,1.98688 4.38739,4.7187 5.712,8.19548 1.65556,4.13922 2.48339,10.679045 2.48348,19.619493 -9e-5,8.775026 -0.24844,16.639372 -0.74504,23.593061 -0.33123,6.78822 -0.49679,12.996914 -0.4967,18.6261 -9e-5,5.629246 0.66217,10.26507 1.98678,13.907489 1.32443,3.476884 2.8973,5.712014 4.71862,6.705396 1.82112,0.9934 3.64233,1.572878 5.46365,1.738436 4.47016,0.331137 6.70529,1.655659 6.7054,3.973568 -1.1e-4,3.476872 -5.21541,5.215306 -15.64593,5.215308 -4.30478,-2e-6 -8.03,-1.158958 -11.17566,-3.476872 -2.98025,-2.317911 -5.1326,-4.553041 -6.45704,-6.705396 -1.3246,-2.317904 -2.06964,-3.476861 -2.23514,-3.476872 -0.16564,1.1e-5 -0.8279,0.579489 -1.98678,1.738436 -1.15903,0.993401 -2.81468,2.235139 -4.96696,3.72522 -1.98685,1.490093 -4.30476,2.980179 -6.95374,4.470264 -6.12598,3.642435 -12.41745,5.463652 -18.87445,5.463656 m 30.29845,-55.381606 -2.48348,0.496696 c -3.80806,0.662312 -6.20876,1.076225 -7.20209,1.241741 -0.99345,0.165615 -3.31136,0.66231 -6.95374,1.490088 -3.64249,0.827874 -6.20875,1.572917 -7.69879,2.235132 -1.32457,0.662307 -3.31135,1.73848 -5.96035,3.228524 -2.48352,1.324564 -4.30474,2.731868 -5.46366,4.221916 -2.98021,4.635863 -4.47029,9.520036 -4.47026,14.652532 -3e-5,5.132545 1.65562,9.437239 4.96696,12.914097 3.31126,3.311314 7.53318,4.966966 12.66575,4.96696 5.29803,6e-6 9.43716,-0.662255 12.4174,-1.986784 3.14567,-1.324513 5.46358,-2.8146 6.95374,-4.470264 1.49002,-1.655639 2.64897,-3.890769 3.47687,-6.705397 0.99332,-3.145718 1.49002,-7.202065 1.49009,-12.169052 l 0,-17.881056 c -7e-5,-1.490038 -0.57955,-2.235081 -1.73844,-2.235133"
         inkscape:connector-curvature="0" />
      <path
         d="m 928.41801,-106.67375 -4.71861,0.24834 c -2.81462,1e-4 -4.22192,-1.15886 -4.22192,-3.47687 0,-1.65555 0.74504,-3.06286 2.23513,-4.22191 6.29147,-4.13903 12.58295,-10.34773 18.87445,-18.6261 2.64902,-3.80789 4.71858,-6.53971 6.2087,-8.19549 1.65562,-1.82109 3.31127,-2.7317 4.96696,-2.73183 1.65562,1.3e-4 2.48344,1.90413 2.48348,5.71201 -4e-5,1.2e-4 -0.33117,4.71873 -0.99339,14.15583 -4e-5,2.31803 0.41387,3.72533 1.24174,4.22192 0.99335,0.4968 3.97352,0.74515 8.94053,0.74504 l 8.69218,0 c 7.45037,1.1e-4 12.00342,-0.4138 13.65914,-1.24174 2.9801,-1.48998 4.80132,-2.23502 5.46366,-2.23513 1.65557,1.1e-4 2.4834,0.91072 2.48348,2.73183 -8e-5,1.32463 -1.07626,3.97367 -3.22853,7.94714 -2.15242,3.80809 -3.72529,5.71209 -4.71861,5.712 -7.45051,9e-5 -12.66581,-0.16547 -15.64592,-0.4967 -2.98024,-0.33103 -4.96702,-0.4966 -5.96036,-0.49669 -0.99344,-0.16547 -1.90405,-0.24826 -2.73182,-0.24835 -0.66231,-0.16547 -1.15901,-0.24825 -1.49009,-0.24835 l -0.4967,-0.24835 c -3.14578,1e-4 -5.21535,0.49679 -6.2087,1.49009 -0.82787,0.99348 -1.24178,3.22861 -1.24174,6.705399 l -0.99339,46.192729 c -4e-5,10.761775 1.32448,18.29499 3.97357,22.599669 2.81456,4.139145 8.60934,6.20871 17.38436,6.2087 3.47681,10e-6 7.28481,-0.745034 11.42401,-2.235132 4.30462,-1.65564 6.62253,-2.483466 6.95374,-2.48348 1.65557,1.4e-5 2.4834,1.076188 2.48348,3.228524 -8e-5,2.152358 -2.89747,5.049749 -8.69218,8.69218 -5.62929,3.476871 -11.7552,5.215306 -18.37775,5.215308 -22.35135,-2e-6 -33.527,-9.685565 -33.52698,-29.056717 l 0,-3.72522 0.99339,-57.86509 c -2e-5,-1.65556 -0.33115,-2.73173 -0.99339,-3.22852 -0.66228,-0.4966 -2.06959,-0.74495 -4.22192,-0.74504"
         inkscape:connector-curvature="0" />
      <path
         d="m 1059.7437,-9.8180309 c -14.5698,-4.7e-6 -26.9872,-4.4702641 -37.2522,-13.4107921 -10.0995,-8.940511 -15.1493,-21.854594 -15.1493,-38.742289 0,-17.053166 4.6359,-31.291771 13.9075,-42.715858 9.4372,-11.42391 21.6063,-17.1359 36.5072,-17.13601 6.9537,1.1e-4 13.2451,1.24184 18.8744,3.72522 5.7947,2.48358 10.265,5.54653 13.4108,9.18887 3.1457,3.47697 5.7947,7.20218 7.9472,11.175665 3.6423,6.788255 5.4635,11.920775 5.4636,15.397576 -10e-5,2.980241 -3.3942,4.470327 -10.1822,4.470264 l -63.8255,0 c -1.3245,6.3e-5 -2.1524,0.165629 -2.4835,0.496696 -0.1656,0.165628 -0.2483,0.910671 -0.2483,2.235132 0,15.563187 4.1391,27.81501 12.4174,36.755505 8.4438,8.940543 18.2949,13.410803 29.5534,13.410793 6.9537,10e-6 13.9902,-1.821207 21.1096,-5.463656 7.2848,-3.807984 11.0928,-5.711983 11.424,-5.712005 1.6555,2.2e-5 2.4834,0.745065 2.4835,2.235132 -10e-5,1.986802 -1.8214,4.718627 -5.4637,8.195485 -3.6425,3.311314 -7.1194,6.04314 -10.4306,8.195484 -7.9472,5.132523 -17.3017,7.6987834 -28.0633,7.6987881 m -28.3117,-74.0077061 43.7092,-1.490088 c 2.3179,7.1e-5 3.7252,-0.165494 4.222,-0.496696 0.6621,-0.496624 0.9933,-1.32445 0.9934,-2.48348 -10e-5,-4.966882 -2.318,-10.761663 -6.9538,-17.384359 -4.6359,-6.62252 -11.0929,-9.93382 -19.3711,-9.93392 -8.2783,10e-5 -14.6526,3.3114 -19.1228,9.93392 -4.4703,6.457131 -6.7055,12.583043 -6.7054,18.377751 -10e-5,2.317985 1.0761,3.476941 3.2285,3.476872"
         inkscape:connector-curvature="0" />
      <path
         d="m 1126.4988,-104.68697 -2.7318,-0.24835 c -3.1458,9e-5 -4.7186,-1.32443 -4.7186,-3.97357 0,-1.82112 1.0761,-3.14564 3.2285,-3.97356 2.3179,-0.9933 6.457,-2.4006 12.4174,-4.22192 6.1259,-1.98668 10.9273,-3.72511 14.4042,-5.21531 3.4768,-1.65554 5.5464,-2.48337 6.2087,-2.48348 2.1523,1.1e-4 3.2285,1.65576 3.2285,4.96696 l -0.2484,6.7054 c 0,5.96044 0.1656,9.27175 0.4967,9.93392 0.4967,0.49678 0.9106,0.74513 1.2418,0.74504 0.4966,9e-5 1.8212,-1.65556 3.9736,-4.96696 2.1523,-3.31121 5.2152,-6.62251 9.1888,-9.93392 3.9735,-3.47676 7.8643,-5.2152 11.6724,-5.21531 3.9735,1.1e-4 8.0298,1.40742 12.169,4.22192 4.1391,2.64915 6.2086,5.38097 6.2087,8.19548 -10e-5,2.64914 -0.6623,5.13262 -1.9867,7.45044 -2.318,3.973657 -4.4704,5.960439 -6.4571,5.960357 -1.3246,8.2e-5 -3.7253,-0.993309 -7.2021,-2.980176 -3.3114,-1.986701 -7.2021,-2.980091 -11.6723,-2.980181 -4.4704,9e-5 -8.6923,1.82131 -12.6658,5.463661 -3.808,3.642516 -5.712,6.95382 -5.712,9.93392 l 0,25.828193 0.2484,21.606276 0.2483,4.470264 c 0,3.47689 1.1589,6.457063 3.4769,8.940529 2.3178,2.483489 4.4702,3.890793 6.457,4.221916 2.1523,0.331138 3.9735,0.579486 5.4637,0.745044 1.49,0.165572 2.649,0.331137 3.4768,0.496696 0.8278,6e-6 1.7384,0.165571 2.7319,0.496696 1.8211,0.331136 2.7317,1.572875 2.7318,3.72522 -10e-5,1.986784 -0.9935,2.980175 -2.9802,2.980176 l -21.1096,-1.24174 -25.8281,1.24174 c -2.9802,-1e-6 -4.6359,-0.331131 -4.967,-0.993392 -0.3311,-0.66226 -0.4967,-1.324521 -0.4967,-1.986784 0,-2.152345 1.0762,-3.559649 3.2285,-4.221916 4.3047,-0.993385 6.871,-3.062949 7.6988,-6.2087 0.9934,-3.311291 1.4901,-10.265028 1.4901,-20.861233 l -0.2483,-39.984029 -0.2484,-7.45044 c 0,-1.821136 -0.2484,-3.311223 -0.745,-4.470265 -1.3246,-3.145652 -5.2154,-4.718522 -11.6724,-4.718612"
         inkscape:connector-curvature="0" />
      <path
         d="m 1372.5845,-185.64842 5.712,-1.98678 c 2.1522,1.7e-4 3.394,0.66243 3.7252,1.98678 3.4768,20.03356 5.2152,31.87147 5.2153,35.51377 -10e-5,3.477 -1.159,5.21543 -3.4768,5.2153 -1.4902,1.3e-4 -2.9803,-1.7383 -4.4703,-5.2153 -1.3246,-3.6423 -2.9803,-6.95361 -4.9669,-9.93393 -1.8214,-2.98002 -3.1459,-4.88402 -3.9736,-5.712 -0.828,-0.82767 -2.9803,-2.81446 -6.4571,-5.96035 -8.9406,-7.94697 -19.2056,-11.92054 -30.7951,-11.92071 -11.4241,1.7e-4 -20.613,2.48365 -27.5666,7.45044 -6.9538,4.96712 -10.4307,11.42416 -10.4307,19.37115 0,7.94727 1.9868,14.32153 5.9604,19.1228 4.1391,4.80151 9.6027,8.52672 16.391,11.17566 6.7881,2.64915 13.9074,5.13263 21.3579,7.45044 20.0333,6.29158 34.8514,14.48705 44.4543,24.586449 6.6225,7.119382 9.9338,15.977119 9.9339,26.573236 -10e-5,17.384397 -5.5466,31.209089 -16.6393,41.474118 -11.093,10.099487 -24.8349,15.149225 -41.2258,15.149228 -11.4241,-3e-6 -20.6129,-0.662264 -27.5666,-1.986784 -6.9538,-1.158957 -14.0731,-3.642435 -21.3579,-7.45044 -2.1524,-1.324515 -4.7187,-7.781557 -7.6988,-19.371145 -2.9802,-11.589536 -4.4703,-18.791621 -4.4703,-21.606276 0,-2.980126 1.0762,-4.470213 3.2285,-4.470265 2.3179,5.2e-5 3.7252,0.827878 4.2219,2.483481 6.1259,14.735349 13.328,25.165955 21.6063,31.291848 8.9405,6.78819 19.7022,10.182276 32.2853,10.182269 12.7484,7e-6 22.8479,-3.228513 30.2984,-9.685573 7.6159,-6.622589 11.4239,-15.231978 11.424,-25.828192 -10e-5,-7.78152 -2.5663,-14.238562 -7.6988,-19.371145 -5.1326,-5.298023 -11.0102,-9.106022 -17.6327,-11.424008 -24.6693,-8.278185 -41.3914,-14.983571 -50.1663,-20.116191 -15.0664,-8.94042 -22.5997,-20.9439 -22.5996,-36.01046 -10e-5,-15.0663 5.298,-26.98699 15.8942,-35.76211 10.7617,-8.94036 24.6692,-13.41061 41.7225,-13.41079 6.2914,1.8e-4 13.7418,1.40748 22.3513,4.22191 8.7749,2.64922 13.2451,3.97374 13.4108,3.97357"
         inkscape:connector-curvature="0" />
      <path
         d="m 1469.6149,-9.8180309 c -14.5698,-4.7e-6 -26.9872,-4.4702641 -37.2522,-13.4107921 -10.0995,-8.940511 -15.1493,-21.854594 -15.1492,-38.742289 -10e-5,-17.053166 4.6358,-31.291771 13.9074,-42.715858 9.4372,-11.42391 21.6063,-17.1359 36.5072,-17.13601 6.9537,1.1e-4 13.2452,1.24184 18.8745,3.72522 5.7947,2.48358 10.2649,5.54653 13.4107,9.18887 3.1457,3.47697 5.7947,7.20218 7.9472,11.175665 3.6423,6.788255 5.4635,11.920775 5.4636,15.397576 -10e-5,2.980241 -3.3942,4.470327 -10.1822,4.470264 l -63.8255,0 c -1.3245,6.3e-5 -2.1524,0.165629 -2.4835,0.496696 -0.1655,0.165628 -0.2483,0.910671 -0.2483,2.235132 0,15.563187 4.1391,27.81501 12.4174,36.755505 8.4438,8.940543 18.2949,13.410803 29.5534,13.410793 6.9537,10e-6 13.9902,-1.821207 21.1096,-5.463656 7.2848,-3.807984 11.0928,-5.711983 11.424,-5.712005 1.6556,2.2e-5 2.4834,0.745065 2.4835,2.235132 -10e-5,1.986802 -1.8213,4.718627 -5.4637,8.195485 -3.6425,3.311314 -7.1194,6.04314 -10.4306,8.195484 -7.9472,5.132523 -17.3016,7.6987834 -28.0633,7.6987881 m -28.3117,-74.0077061 43.7093,-1.490088 c 2.3178,7.1e-5 3.7251,-0.165494 4.2219,-0.496696 0.6622,-0.496624 0.9933,-1.32445 0.9934,-2.48348 -10e-5,-4.966882 -2.318,-10.761663 -6.9538,-17.384359 -4.6359,-6.62252 -11.0929,-9.93382 -19.3711,-9.93392 -8.2783,10e-5 -14.6526,3.3114 -19.1228,9.93392 -4.4703,6.457131 -6.7054,12.583043 -6.7054,18.377751 0,2.317985 1.0761,3.476941 3.2285,3.476872"
         inkscape:connector-curvature="0" />
      <path
         d="m 1564.6817,-10.811423 c -19.5367,-4e-6 -29.3051,-8.278262 -29.3051,-24.834801 0,-11.920671 4.967,-20.116147 14.9009,-24.586452 8.2782,-3.476823 20.944,-6.622562 37.9973,-9.437225 0.4966,-0.16551 1.1588,-0.248292 1.9867,-0.248348 0.8278,-0.165509 1.6556,-0.331075 2.4835,-0.496696 0.9933,-0.165509 1.7384,-0.331074 2.2351,-0.496696 1.1589,-0.496639 1.7384,-1.655595 1.7385,-3.476872 l 0.4967,-12.914096 c -10e-5,-9.437142 -2.7319,-16.225311 -8.1955,-20.364541 -5.4637,-4.3046 -10.7618,-6.45694 -15.8943,-6.45704 -11.9207,1e-4 -17.8811,4.96705 -17.881,14.900877 l 0.9934,8.940528 c -10e-5,3.311379 -1.4902,4.967031 -4.4703,4.96696 -2.3179,7.1e-5 -4.8842,-0.413842 -7.6988,-1.24174 -5.1325,-1.65558 -7.6988,-4.470188 -7.6988,-8.443832 0,-6.456963 4.3047,-12.582873 12.9141,-18.377753 8.7749,-5.96025 17.5499,-8.94042 26.3249,-8.94053 8.7749,1.1e-4 15.6459,0.82794 20.6129,2.48348 4.9669,1.65576 8.6093,3.55976 10.9273,5.71201 2.4834,1.98688 4.3874,4.7187 5.712,8.19548 1.6556,4.13922 2.4834,10.679045 2.4835,19.619493 -1e-4,8.775026 -0.2485,16.639372 -0.7451,23.593061 -0.3312,6.78822 -0.4967,12.996914 -0.4967,18.6261 0,5.629246 0.6622,10.26507 1.9868,13.907489 1.3245,3.476884 2.8973,5.712014 4.7186,6.705396 1.8212,0.9934 3.6424,1.572878 5.4637,1.738436 4.4702,0.331137 6.7053,1.655659 6.7054,3.973568 -10e-5,3.476872 -5.2154,5.215306 -15.6459,5.215308 -4.3048,-2e-6 -8.03,-1.158958 -11.1757,-3.476872 -2.9802,-2.317911 -5.1326,-4.553041 -6.457,-6.705396 -1.3246,-2.317904 -2.0697,-3.476861 -2.2352,-3.476872 -0.1656,1.1e-5 -0.8279,0.579489 -1.9868,1.738436 -1.159,0.993401 -2.8146,2.235139 -4.9669,3.72522 -1.9869,1.490093 -4.3048,2.980179 -6.9538,4.470264 -6.1259,3.642435 -12.4174,5.463652 -18.8744,5.463656 m 30.2984,-55.381606 -2.4834,0.496696 c -3.8081,0.662312 -6.2088,1.076225 -7.2021,1.241741 -0.9935,0.165615 -3.3114,0.66231 -6.9538,1.490088 -3.6425,0.827874 -6.2087,1.572917 -7.6988,2.235132 -1.3245,0.662307 -3.3113,1.73848 -5.9603,3.228524 -2.4835,1.324564 -4.3047,2.731868 -5.4637,4.221916 -2.9802,4.635863 -4.4703,9.520036 -4.4702,14.652532 -1e-4,5.132545 1.6556,9.437239 4.9669,12.914097 3.3113,3.311314 7.5332,4.966966 12.6658,4.96696 5.298,6e-6 9.4371,-0.662255 12.4174,-1.986784 3.1457,-1.324513 5.4636,-2.8146 6.9537,-4.470264 1.49,-1.655639 2.649,-3.890769 3.4769,-6.705397 0.9933,-3.145718 1.49,-7.202065 1.4901,-12.169052 l 0,-17.881056 c -10e-5,-1.490038 -0.5796,-2.235081 -1.7385,-2.235133"
         inkscape:connector-curvature="0" />
      <path
         d="m 1651.1496,-106.67375 -4.7186,0.24834 c -2.8147,1e-4 -4.222,-1.15886 -4.222,-3.47687 0,-1.65555 0.7451,-3.06286 2.2352,-4.22191 6.2914,-4.13903 12.5829,-10.34773 18.8744,-18.6261 2.649,-3.80789 4.7186,-6.53971 6.2087,-8.19549 1.6556,-1.82109 3.3113,-2.7317 4.967,-2.73183 1.6556,1.3e-4 2.4834,1.90413 2.4835,5.71201 -10e-5,1.2e-4 -0.3312,4.71873 -0.9934,14.15583 -10e-5,2.31803 0.4139,3.72533 1.2417,4.22192 0.9934,0.4968 3.9735,0.74515 8.9405,0.74504 l 8.6922,0 c 7.4504,1.1e-4 12.0034,-0.4138 13.6592,-1.24174 2.9801,-1.48998 4.8013,-2.23502 5.4636,-2.23513 1.6556,1.1e-4 2.4834,0.91072 2.4835,2.73183 -10e-5,1.32463 -1.0763,3.97367 -3.2285,7.94714 -2.1524,3.80809 -3.7253,5.71209 -4.7186,5.712 -7.4505,9e-5 -12.6658,-0.16547 -15.646,-0.4967 -2.9802,-0.33103 -4.967,-0.4966 -5.9603,-0.49669 -0.9935,-0.16547 -1.9041,-0.24826 -2.7318,-0.24835 -0.6623,-0.16547 -1.159,-0.24825 -1.4901,-0.24835 l -0.4967,-0.24835 c -3.1458,1e-4 -5.2154,0.49679 -6.2087,1.49009 -0.8279,0.99348 -1.2418,3.22861 -1.2418,6.705399 l -0.9934,46.192729 c 0,10.761775 1.3245,18.29499 3.9736,22.599669 2.8146,4.139145 8.6094,6.20871 17.3844,6.2087 3.4768,10e-6 7.2848,-0.745034 11.424,-2.235132 4.3046,-1.65564 6.6225,-2.483466 6.9537,-2.48348 1.6556,1.4e-5 2.4834,1.076188 2.4835,3.228524 -10e-5,2.152358 -2.8975,5.049749 -8.6922,8.69218 -5.6293,3.476871 -11.7552,5.215306 -18.3777,5.215308 -22.3514,-2e-6 -33.527,-9.685565 -33.527,-29.056717 l 0,-3.72522 0.9934,-57.86509 c 0,-1.65556 -0.3312,-2.73173 -0.9934,-3.22852 -0.6623,-0.4966 -2.0696,-0.74495 -4.2219,-0.74504"
         inkscape:connector-curvature="0" />
      <path
         d="m 1736.0341,-106.67375 -4.7186,0.24834 c -2.8146,1e-4 -4.2219,-1.15886 -4.2219,-3.47687 0,-1.65555 0.745,-3.06286 2.2351,-4.22191 6.2915,-4.13903 12.5829,-10.34773 18.8745,-18.6261 2.649,-3.80789 4.7185,-6.53971 6.2087,-8.19549 1.6556,-1.82109 3.3112,-2.7317 4.9669,-2.73183 1.6556,1.3e-4 2.4835,1.90413 2.4835,5.71201 0,1.2e-4 -0.3312,4.71873 -0.9934,14.15583 0,2.31803 0.4139,3.72533 1.2417,4.22192 0.9934,0.4968 3.9736,0.74515 8.9406,0.74504 l 8.6921,0 c 7.4504,1.1e-4 12.0035,-0.4138 13.6592,-1.24174 2.9801,-1.48998 4.8013,-2.23502 5.4636,-2.23513 1.6556,1.1e-4 2.4834,0.91072 2.4835,2.73183 -10e-5,1.32463 -1.0762,3.97367 -3.2285,7.94714 -2.1524,3.80809 -3.7253,5.71209 -4.7186,5.712 -7.4505,9e-5 -12.6658,-0.16547 -15.6459,-0.4967 -2.9803,-0.33103 -4.967,-0.4966 -5.9604,-0.49669 -0.9934,-0.16547 -1.904,-0.24826 -2.7318,-0.24835 -0.6623,-0.16547 -1.159,-0.24825 -1.4901,-0.24835 l -0.4967,-0.24835 c -3.1458,1e-4 -5.2153,0.49679 -6.2087,1.49009 -0.8279,0.99348 -1.2418,3.22861 -1.2417,6.705399 l -0.9934,46.192729 c -10e-5,10.761775 1.3245,18.29499 3.9735,22.599669 2.8146,4.139145 8.6094,6.20871 17.3844,6.2087 3.4768,10e-6 7.2848,-0.745034 11.424,-2.235132 4.3046,-1.65564 6.6225,-2.483466 6.9537,-2.48348 1.6556,1.4e-5 2.4834,1.076188 2.4835,3.228524 -1e-4,2.152358 -2.8974,5.049749 -8.6922,8.69218 -5.6292,3.476871 -11.7552,5.215306 -18.3777,5.215308 -22.3514,-2e-6 -33.527,-9.685565 -33.527,-29.056717 l 0,-3.72522 0.9934,-57.86509 c 0,-1.65556 -0.3311,-2.73173 -0.9934,-3.22852 -0.6623,-0.4966 -2.0696,-0.74495 -4.2219,-0.74504"
         inkscape:connector-curvature="0" />
      <path
         d="m 1827.8724,-62.21946 0.9934,-105.5479 c -10e-5,-3.80785 -0.6623,-7.20194 -1.9868,-10.18227 -1.159,-3.14558 -2.4835,-5.04958 -3.9736,-5.71201 -1.4901,-0.66209 -4.8014,-0.99322 -9.9339,-0.99339 -1.8212,1.7e-4 -2.7318,-0.57931 -2.7318,-1.73843 0,-1.15879 0.083,-1.98661 0.2483,-2.48348 0.3311,-0.49653 0.9106,-0.91044 1.7384,-1.24174 0.8279,-0.49652 1.8213,-0.91044 2.9802,-1.24174 4.8014,-0.99322 9.7684,-2.73165 14.9009,-5.21531 8.1127,-3.80782 13.4108,-5.71182 15.8943,-5.71201 1.9867,1.9e-4 2.9801,1.57306 2.9801,4.71862 0,0.66244 -0.1656,2.56644 -0.4967,5.712 -0.9934,9.76852 -1.4901,20.44748 -1.49,32.03689 l 0,13.90749 -0.4967,33.03029 0,74.007702 c -10e-5,3.476893 0.2483,6.374284 0.745,8.692181 0.6622,2.152362 2.5662,4.30471 5.712,6.457048 3.3113,1.986791 7.8643,2.980182 13.6592,2.980176 0.8277,6e-6 1.5728,0.413919 2.2351,1.24174 0.6622,0.827831 0.9933,1.655657 0.9934,2.48348 -10e-5,2.317915 -2.5663,3.476871 -7.6988,3.476872 l -25.0832,-1.738436 c -4.3047,10e-7 -8.4438,0.331131 -12.4174,0.993392 -3.808,0.66226 -6.3742,0.993391 -7.6987,0.993392 -1.159,-1e-6 -2.1524,-0.331132 -2.9802,-0.993392 -0.6623,-0.496696 -0.9934,-1.158956 -0.9934,-1.986784 0,-0.993389 0.3311,-1.738433 0.9934,-2.235132 0.8278,-0.662257 2.0695,-1.158952 3.7252,-1.490088 4.9669,-1.324516 7.9471,-3.311298 8.9405,-5.960352 0.9934,-2.814597 1.4901,-6.622596 1.4901,-11.424009 l -0.2483,-6.457048 0,-18.377752"
         inkscape:connector-curvature="0" />
      <path
         d="m 1934.2973,-9.8180309 c -14.5698,-4.7e-6 -26.9872,-4.4702641 -37.2522,-13.4107921 -10.0995,-8.940511 -15.1492,-21.854594 -15.1492,-38.742289 0,-17.053166 4.6358,-31.291771 13.9075,-42.715858 9.4372,-11.42391 21.6062,-17.1359 36.5071,-17.13601 6.9537,1.1e-4 13.2452,1.24184 18.8745,3.72522 5.7947,2.48358 10.2649,5.54653 13.4108,9.18887 3.1456,3.47697 5.7947,7.20218 7.9471,11.175665 3.6423,6.788255 5.4636,11.920775 5.4637,15.397576 -10e-5,2.980241 -3.3942,4.470327 -10.1823,4.470264 l -63.8254,0 c -1.3246,6.3e-5 -2.1524,0.165629 -2.4835,0.496696 -0.1656,0.165628 -0.2484,0.910671 -0.2484,2.235132 0,15.563187 4.1391,27.81501 12.4174,36.755505 8.4438,8.940543 18.2949,13.410803 29.5534,13.410793 6.9537,10e-6 13.9902,-1.821207 21.1096,-5.463656 7.2848,-3.807984 11.0928,-5.711983 11.424,-5.712005 1.6556,2.2e-5 2.4834,0.745065 2.4835,2.235132 -10e-5,1.986802 -1.8213,4.718627 -5.4636,8.195485 -3.6426,3.311314 -7.1194,6.04314 -10.4307,8.195484 -7.9472,5.132523 -17.3016,7.6987834 -28.0633,7.6987881 m -28.3117,-74.0077061 43.7093,-1.490088 c 2.3178,7.1e-5 3.7251,-0.165494 4.2219,-0.496696 0.6622,-0.496624 0.9933,-1.32445 0.9934,-2.48348 -10e-5,-4.966882 -2.318,-10.761663 -6.9537,-17.384359 -4.6359,-6.62252 -11.093,-9.93382 -19.3712,-9.93392 -8.2783,10e-5 -14.6526,3.3114 -19.1228,9.93392 -4.4703,6.457131 -6.7054,12.583043 -6.7054,18.377751 0,2.317985 1.0762,3.476941 3.2285,3.476872"
         inkscape:connector-curvature="0" />
      <path
         d="m 2069.5693,-102.70019 0.745,-42.9642 c 0,-4.47013 -0.1656,-12.00334 -0.4967,-22.59967 -0.1656,-4.80124 -2.2351,-8.52645 -6.2087,-11.17566 -3.9735,-2.64888 -7.6988,-3.9734 -11.1756,-3.97357 -3.4769,-0.16539 -5.4637,-0.49652 -5.9604,-0.99339 -0.3311,-0.66209 -0.4967,-1.5727 -0.4967,-2.73183 0,-2.98 2.2352,-4.47009 6.7054,-4.47026 l 6.7054,0.49669 21.6063,0.9934 26.0765,-0.9934 c 2.8146,1.8e-4 4.2219,0.82801 4.222,2.48348 -10e-5,2.31809 -0.9935,3.89096 -2.9802,4.71862 -1.9869,0.66243 -4.222,1.15912 -6.7054,1.49008 -2.318,0.16574 -4.6359,1.98695 -6.9538,5.46366 -2.1524,3.31147 -3.3941,8.27842 -3.7252,14.90088 -0.3312,6.62276 -0.7451,24.75214 -1.2417,54.38821 -0.4968,29.636263 -0.7451,46.192781 -0.7451,49.669606 l 0,9.93392 c 0,11.920726 1.9868,18.543333 5.9604,19.867841 4.1391,1.158969 7.6987,1.738448 10.679,1.738436 24.8347,1.2e-5 42.7157,-1.986771 53.6431,-5.960353 9.9338,-3.642415 15.8942,-7.450414 17.8811,-11.424008 2.1522,-4.1391 4.0562,-6.208665 5.712,-6.2087 1.9866,3.5e-5 2.98,1.407339 2.9802,4.221916 -2e-4,7.119334 -3.5598,14.321419 -10.679,21.606277 -7.1194,7.284877 -13.3281,10.927311 -18.6261,10.927312 -11.9208,-1e-6 -25.4144,-0.413914 -40.4807,-1.24174 -14.901,-0.827826 -24.1726,-1.241739 -27.815,-1.24174 l -31.0435,1.986784 c -4.8014,-1e-6 -7.2021,-0.993392 -7.2021,-2.980176 0,-1.158954 0.4139,-2.069563 1.2417,-2.731828 0.9934,-0.827821 2.3179,-1.241734 3.9736,-1.24174 1.6556,6e-6 3.808,-0.993385 6.4571,-2.980176 2.649,-1.986773 4.6358,-6.04312 5.9603,-12.169053 1.3245,-6.291455 1.9868,-18.29493 1.9868,-36.010461 l 0,-30.795157"
         inkscape:connector-curvature="0" />
      <path
         d="m 2230.3786,-13.543251 -17.6327,0.496696 c -6.6227,-1e-6 -9.934,-1.076175 -9.934,-3.228524 0,-2.317911 1.2418,-3.89078 3.7253,-4.718612 0.1655,6e-6 0.4966,-0.08278 0.9933,-0.248348 3.808,-1.324515 6.2915,-3.311297 7.4505,-5.960352 1.1589,-2.64903 1.7384,-15.480331 1.7384,-38.493942 l 0,-21.854624 c 0,-4.801317 -0.5795,-8.609316 -1.7384,-11.424008 -1.159,-2.814525 -2.2352,-4.552955 -3.2285,-5.215305 -0.9935,-0.66217 -2.7319,-1.15887 -5.2153,-1.49009 -2.318,-0.49661 -4.0564,-0.91052 -5.2154,-1.24174 -0.9934,-0.4966 -1.4901,-1.15887 -1.49,-1.98679 -10e-5,-0.99329 0.1655,-1.73834 0.4967,-2.23513 0.4966,-0.4966 1.3245,-0.99329 2.4834,-1.49009 1.3245,-0.66216 2.6491,-1.24164 3.9736,-1.73843 4.6358,-1.32442 8.4438,-2.64894 11.424,-3.97357 2.9802,-1.32442 5.2153,-2.31781 6.7054,-2.98018 1.6556,-0.66215 2.7318,-1.15885 3.2285,-1.49008 1.1589,-0.49659 2.5663,-0.74494 4.2219,-0.74505 2.4835,1.1e-4 3.7252,1.57298 3.7253,4.71861 l -1.4901,11.92071 0,68.047352 c -1e-4,4.96698 0.745,8.857761 2.2351,11.672357 1.6556,2.81462 3.3113,4.553055 4.967,5.215308 1.8211,0.662268 3.8907,1.076181 6.2087,1.24174 2.3178,0.165571 3.8079,0.248354 4.4702,0.248348 2.3179,0.331136 3.4768,1.490092 3.4769,3.476872 -1e-4,2.81461 -1.4074,4.221914 -4.2219,4.221916 l -3.7252,-0.248348 -17.6327,-0.496696 m -4.222,-133.362879 c -3.3113,1.3e-4 -6.2087,-1.7383 -8.6921,-5.21531 -2.318,-3.47673 -3.4769,-6.29134 -3.4769,-8.44383 0,-2.31777 1.4073,-5.21516 4.2219,-8.69218 2.9802,-3.64228 5.712,-5.4635 8.1955,-5.46366 2.649,1.6e-4 5.2153,1.7386 7.6988,5.21531 2.4834,3.31146 3.7252,6.29163 3.7252,8.94053 0,2.64919 -1.5729,5.62936 -4.7186,8.94053 -3.1458,3.14587 -5.4637,4.71874 -6.9538,4.71861"
         inkscape:connector-curvature="0" />
      <path
         d="m 2322.8144,-14.536643 -18.1294,-0.993392 c -4.3047,10e-7 -10.0167,0.165566 -17.136,0.496696 l -10.679,0.496696 c -2.4835,0 -3.7252,-0.745043 -3.7252,-2.235132 0,-1.490084 0.4139,-2.400693 1.2418,-2.731828 0.8278,-0.331126 1.8212,-0.579473 2.9801,-0.745044 1.3245,-0.16556 2.5663,-0.662255 3.7253,-1.490088 3.1457,-1.986775 4.8841,-7.947121 5.2153,-17.881057 0.3311,-10.09945 0.4966,-16.722057 0.4967,-19.86784 l 0,-35.762113 c -1e-4,-5.298005 -0.9935,-8.857655 -2.9802,-10.678965 -1.8213,-1.82113 -4.3875,-2.73173 -7.6988,-2.73183 l -2.4835,0 c -3.1457,1e-4 -4.7186,-0.91051 -4.7186,-2.73183 0,-1.65555 1.7384,-2.73172 5.2153,-3.22852 3.6424,-0.4966 6.457,-0.99329 8.4438,-1.49009 2.1524,-0.66216 4.8842,-1.65555 8.1955,-2.98017 3.4769,-1.48999 6.2087,-2.73172 8.1955,-3.72522 2.1523,-0.99329 3.5596,-1.48998 4.2219,-1.49009 l 0.4967,0 c 1.4901,1.1e-4 2.2351,0.9935 2.2352,2.98017 l -0.4967,10.67897 c -1e-4,4.30479 0.331,6.45714 0.9933,6.45705 0.6623,9e-5 1.3245,-0.41383 1.9868,-1.24174 2.4835,-3.47678 5.7948,-6.45695 9.934,-8.94053 7.4503,-4.63573 14.5696,-6.95364 21.3579,-6.95375 6.7881,1.1e-4 12.8312,1.07628 18.1294,3.22853 5.298,1.98688 9.4371,4.55314 12.4174,7.69879 2.9801,2.98027 5.4635,6.45713 7.4504,10.430612 3.3112,6.622693 4.9669,13.410865 4.967,20.364537 l 0,2.48348 0.2483,13.162445 0,25.331496 c -1e-4,6.291501 0.8277,10.678978 2.4835,13.162445 1.8211,2.317923 6.043,3.973575 12.6658,4.96696 3.3111,0.496701 4.9668,1.73844 4.9669,3.72522 -1e-4,1.655654 -1.6558,2.48348 -4.9669,2.48348 l -20.3646,-1.24174 -19.1228,0.993392 c -3.3114,0 -4.967,-1.076174 -4.9669,-3.228524 -10e-5,-1.490083 0.9933,-2.483474 2.9801,-2.980176 l 3.2286,-0.745044 c 3.6423,-1.158949 5.4635,-6.705383 5.4636,-16.639317 l 0,-33.526981 c -10e-5,-12.748461 -3.1458,-22.351241 -9.4372,-28.808365 -6.2916,-6.62252 -13.4109,-9.93383 -21.3579,-9.93392 -7.9472,9e-5 -14.5698,1.90409 -19.8679,5.712 -5.2981,3.80809 -8.5266,7.367741 -9.6855,10.678965 -1.159,3.311383 -1.7385,15.977118 -1.7385,37.997245 l 0,9.437224 c 0,8.278291 0.8278,14.404202 2.4835,18.377753 1.8212,3.973577 5.712,6.208707 11.6724,6.705396 1.6556,7e-6 3.7251,0.331137 6.2087,0.993392 2.6489,0.496701 3.9735,1.40731 3.9735,2.731828 0,2.15235 -1.5729,3.228524 -4.7186,3.228524"
         inkscape:connector-curvature="0" />
      <path
         d="m 2429.1152,-53.278932 0.2484,-44.702641 c -1e-4,-3.311217 -0.9107,-5.960267 -2.7319,-7.947137 -1.6556,-1.98669 -3.2285,-2.98008 -4.7186,-2.98018 l -4.4702,0 c -2.9802,1e-4 -4.4703,-1.15886 -4.4703,-3.47687 0,-2.31781 1.5729,-3.8079 4.7186,-4.47026 3.3113,-0.66216 7.2849,-0.99329 11.9207,-0.99339 l 14.1558,-1.24174 c 2.8146,1e-4 4.4703,0.57958 4.967,1.73843 0.4967,1.15906 0.745,4.05645 0.745,8.69218 0,4.63592 -0.2483,11.01018 -0.745,19.122799 -0.3312,7.947203 -0.4967,16.80494 -0.4967,26.573237 0,14.569783 2.8146,24.917606 8.4438,31.0435 5.6292,5.960364 12.0035,8.940537 19.1228,8.940529 10.5961,8e-6 18.2949,-2.235122 23.0964,-6.705396 4.8013,-4.470245 7.202,-12.334591 7.2021,-23.593061 l -0.4967,-34.272025 c -1e-4,-8.278186 -0.6624,-13.824623 -1.9868,-16.639313 -1.3246,-2.98009 -4.1392,-4.63574 -8.4438,-4.96696 -4.3048,-0.4966 -6.4571,-1.65556 -6.4571,-3.47688 0,-3.8079 7.2848,-5.7119 21.8547,-5.712 l 8.9405,-1.24174 c 2.4833,1e-4 4.0562,0.41402 4.7186,1.24174 0.8277,0.82793 1.2416,2.06967 1.2417,3.72522 -1e-4,1.49019 -0.083,3.47697 -0.2483,5.96035 -10e-5,2.31801 -0.083,5.46375 -0.2484,9.437227 -10e-5,3.973648 -0.083,8.443908 -0.2483,13.410792 -0.3313,9.933982 -0.4968,21.026848 -0.4967,33.278633 -1e-4,12.251861 0.4966,20.198989 1.4901,23.841409 0.9933,3.642448 2.8145,5.463664 5.4636,5.463656 l 6.4571,-0.248348 c 3.9734,9e-6 5.9602,0.9934 5.9603,2.980176 -10e-5,1.986788 -0.5796,3.228527 -1.7384,3.72522 -1.1591,0.496698 -3.3942,0.745045 -6.7054,0.745044 -3.3114,1e-6 -8.3612,0.496697 -15.1492,1.490088 -6.6227,0.827826 -10.1824,1.241739 -10.679,1.24174 -1.159,-1e-6 -2.1524,-2.069566 -2.9802,-6.2087 -0.6623,-4.30469 -1.159,-6.457037 -1.49,-6.457048 -0.1657,1.1e-5 -1.7386,1.324532 -4.7187,3.973568 -2.9802,2.64905 -7.2849,5.298093 -12.9141,7.947136 -5.4637,2.649042 -11.5068,3.973564 -18.1294,3.973568 -26.656,-4e-6 -39.984,-14.404174 -39.984,-43.212553"
         inkscape:connector-curvature="0" />
      <path
         d="m 2580.1534,-15.033339 -13.1624,0.993392 c -7.2849,-1e-6 -10.9274,-1.324522 -10.9273,-3.973568 -1e-4,-0.827823 0.2483,-1.407301 0.745,-1.738436 0.4967,-0.331125 1.8212,-0.827821 3.9736,-1.490088 2.1523,-0.827819 4.4702,-2.069558 6.9537,-3.72522 2.649,-1.655642 5.4636,-3.725206 8.4438,-6.208701 3.1458,-2.48346 6.2915,-5.298068 9.4373,-8.443832 3.1457,-3.145713 5.7119,-5.711973 7.6988,-7.698788 1.9867,-2.152314 4.4702,-4.966922 7.4504,-8.443832 3.1457,-3.476828 5.0497,-5.629175 5.712,-6.457048 0.6622,-0.827779 0.9933,-1.572822 0.9934,-2.235132 -1e-4,-0.827776 -0.9935,-2.400646 -2.9802,-4.718613 -1.8213,-2.483423 -4.6359,-5.960291 -8.4438,-10.430616 -3.8081,-4.63576 -7.3677,-9.023237 -10.679,-13.162444 -3.1458,-4.304617 -6.6226,-8.112615 -10.4306,-11.424005 -3.808,-3.47678 -6.871,-5.38078 -9.1889,-5.71201 -2.1523,-0.4966 -4.2219,-1.40721 -6.2087,-2.73183 -1.9868,-1.48998 -2.9802,-2.98007 -2.9801,-4.47026 -10e-5,-1.98668 1.1589,-2.98007 3.4768,-2.98018 l 19.3712,1.24174 20.1162,-0.99339 c 2.6489,1.1e-4 4.3874,0.24845 5.2153,0.74505 0.8277,0.4968 1.2416,1.32462 1.2417,2.48348 -1e-4,0.99349 -1.4074,1.98688 -4.2219,2.98017 -2.6491,0.99349 -3.9736,2.4008 -3.9736,4.22192 0,1.49018 1.5728,4.38757 4.7186,8.69218 3.3113,4.304779 6.3742,8.526691 9.1889,12.665747 4.9669,7.119376 7.9471,10.679027 8.9405,10.678964 0.4967,6.3e-5 1.3245,-0.662198 2.4835,-1.986784 11.5895,-14.735235 17.6326,-22.682367 18.1294,-23.841407 0.4966,-1.15887 0.745,-2.48339 0.7451,-3.97357 -10e-5,-2.48338 -1.9041,-4.47017 -5.712,-5.96035 -3.8081,-1.48999 -5.7121,-2.73173 -5.712,-3.72522 -10e-5,-1.98668 2.1522,-2.98007 6.457,-2.98018 l 15.6459,0.24835 17.136,-0.4967 c 1.1589,1.1e-4 2.2351,0.33124 3.2286,0.9934 0.9932,0.66236 1.4899,1.49019 1.4901,2.48348 -2e-4,0.82792 -0.4969,1.57297 -1.4901,2.23513 -0.828,0.49679 -1.9869,0.99349 -3.4769,1.49009 -4.636,1.15905 -10.0168,4.80148 -16.1426,10.92731 -19.0401,19.040081 -28.5601,29.470687 -28.56,31.291847 -10e-5,0.496752 1.8211,2.814664 5.4636,6.953745 3.6424,3.973613 7.4504,8.443873 11.424,13.410792 3.9735,4.801426 6.7053,8.195512 8.1955,10.182268 1.6556,1.821243 2.8145,3.145764 3.4769,3.973568 0.6621,0.662283 1.7383,1.904021 3.2285,3.72522 1.6555,1.65567 3.0628,2.980191 4.2219,3.973569 1.1589,0.827839 2.5662,1.82123 4.2219,2.980176 2.8145,2.317923 5.298,3.80801 7.4505,4.470264 2.3178,0.662267 3.6423,1.07618 3.9735,1.24174 0.8277,0.496701 1.2417,1.324526 1.2418,2.48348 -10e-5,1.158959 -0.4968,1.986785 -1.4901,2.48348 -0.9935,0.331131 -3.3114,0.496696 -6.9538,0.496696 l -14.6525,-0.496696 -14.6525,0.496696 -2.7318,0 c -5.6294,0 -8.444,-0.827826 -8.4439,-2.48348 -1e-4,-0.827824 1.4072,-1.738432 4.2219,-2.731828 2.9801,-0.993386 4.4702,-2.483473 4.4703,-4.470264 -1e-4,-2.152338 -1.159,-4.884163 -3.4769,-8.195485 -2.318,-3.311285 -5.4637,-7.367632 -9.4372,-12.169052 -3.9736,-4.80136 -6.7055,-8.278229 -8.1955,-10.430616 -1.4901,-2.152307 -2.4007,-3.228481 -2.7318,-3.228524 -0.3312,4.3e-5 -1.3246,0.827869 -2.9802,2.48348 -1.9868,2.483518 -4.3875,5.380909 -7.2021,8.69218 l -6.457,7.45044 c -3.6425,4.30472 -5.4637,7.947153 -5.4637,10.927313 0,2.814621 0.5795,4.801403 1.7385,5.960352 1.3244,1.158964 2.7317,1.821225 4.2219,1.986784 3.8079,0.165571 5.7119,1.490092 5.712,3.973568 -1e-4,0.662263 -0.083,1.158958 -0.2484,1.490088 -0.6623,0.496696 -3.9736,0.745044 -9.9339,0.745044 l -12.9141,-0.745044"
         inkscape:connector-curvature="0" />
      <path
         d="m 2766.3446,-121.57463 0.4967,-35.76212 c 0,-9.10594 -1.0762,-15.31463 -3.2285,-18.6261 -2.1524,-3.4767 -7.2021,-5.79462 -15.1492,-6.95374 -3.6425,-0.49653 -5.4637,-2.0694 -5.4637,-4.71861 0,-1.32435 0.4967,-2.15218 1.4901,-2.48348 0.9934,-0.49652 2.4007,-0.74487 4.2219,-0.74505 l 28.0633,0.99339 23.3448,-0.49669 c 3.4768,1.7e-4 5.2152,1.15913 5.2153,3.47687 -1e-4,1.49026 -0.5796,2.40087 -1.7385,2.73183 -1.159,0.3313 -2.6491,0.57965 -4.4702,0.74504 -1.6558,0.16574 -3.3114,0.74521 -4.967,1.73844 -4.1392,2.31808 -6.2088,10.01686 -6.2087,23.09636 l 0,6.95375 -0.2483,53.643167 c -1e-4,16.391035 0.4966,27.069989 1.49,32.036892 0.9934,4.967007 2.1523,9.602832 3.4769,13.907489 1.3245,4.139167 2.8973,7.45047 4.7186,9.93392 1.9867,2.483505 4.3874,5.215331 7.2021,8.195484 2.9801,2.980193 6.3742,5.298105 10.1823,6.953745 8.9404,3.642446 19.1227,5.463663 30.5468,5.463656 17.8809,7e-6 30.2983,-1.986775 37.2522,-5.960352 2.98,-1.655639 6.3741,-4.221899 10.1823,-7.698789 3.9734,-3.642413 7.0363,-8.02989 9.1888,-13.162444 5.1324,-12.251789 7.6987,-27.814915 7.6988,-46.689425 l -0.2483,-52.649773 c -2e-4,-5.79465 -0.1658,-10.3477 -0.4967,-13.65915 -0.1658,-3.31115 -0.9936,-6.95359 -2.4835,-10.92731 -1.3247,-3.9734 -3.0631,-6.70523 -5.2153,-8.19548 -2.1525,-1.48992 -4.5532,-2.40053 -7.2021,-2.73183 -2.6492,-0.49653 -4.8015,-0.82766 -6.457,-0.99339 -1.6559,-0.33096 -2.4837,-1.07601 -2.4835,-2.23513 -2e-4,-2.64887 1.6555,-3.9734 4.9669,-3.97357 l 19.1228,0.49669 21.1096,-0.74504 c 3.4767,1.8e-4 5.2151,1.07635 5.2153,3.22852 -2e-4,1.3247 -1.8214,3.06313 -5.4636,5.21531 -3.4771,1.98695 -5.6294,3.80817 -6.4571,5.46366 -1.8214,3.47703 -2.732,8.94068 -2.7318,16.39097 l 0.2483,16.63931 c -2e-4,31.78865 -1.3247,56.126726 -3.9735,73.014317 -2.6493,16.887704 -6.7056,29.139527 -12.1691,36.755505 -11.093,16.059842 -30.7125,24.0897524 -58.8585,24.0897571 -28.1462,-4.7e-6 -48.014,-5.2980901 -59.6035,-15.8942721 -9.1061,-8.443813 -14.7353,-18.543289 -16.8877,-30.298457 -2.1523,-11.920651 -3.2285,-32.36795 -3.2285,-61.34196 l 0,-4.22191"
         inkscape:connector-curvature="0" />
      <path
         d="m 3021.7589,-114.12419 0.9934,14.900877 c -1e-4,2.814692 -0.3312,4.718692 -0.9934,5.712004 -0.6623,0.99347 -1.6557,1.490165 -2.9802,1.490088 -1.159,7.7e-5 -2.4835,-1.158879 -3.9735,-3.476872 -1.3246,-2.483397 -2.8975,-5.132437 -4.7186,-7.947137 -1.6558,-2.81452 -4.4704,-5.38078 -8.4439,-7.69879 -3.808,-2.48338 -8.1955,-3.72512 -13.1624,-3.72522 -4.967,1e-4 -9.0234,1.24184 -12.1691,3.72522 -3.1457,2.31801 -4.7186,4.88427 -4.7186,7.69879 0,2.8147 0.2483,5.13261 0.7451,6.953745 0.4966,1.655733 1.3245,3.14582 2.4834,4.470264 1.3245,1.324599 2.4007,2.483555 3.2286,3.476872 0.9933,0.8279 2.5662,1.738508 4.7186,2.731828 2.1523,0.993462 3.7252,1.738505 4.7186,2.235132 1.1589,0.331199 2.9801,0.99346 5.4636,1.986784 15.0664,5.298153 24.752,10.513456 29.0568,15.645924 4.3046,4.967007 6.4569,12.169092 6.457,21.606277 -1e-4,9.437245 -4.3876,18.129416 -13.1624,26.076541 -5.9605,5.132524 -14.1559,7.698784 -24.5865,7.698788 -7.1193,-4e-6 -15.0665,-1.738438 -23.8414,-5.215308 -2.4835,-0.99339 -3.9736,-1.490085 -4.4703,-1.490088 -0.3311,-0.165563 -0.9934,-0.41391 -1.9867,-0.745044 -0.8279,-0.331127 -1.4901,-0.496692 -1.9868,-0.496696 -0.3312,-0.165561 -0.8279,-0.413909 -1.4901,-0.745044 -0.6623,-0.331126 -1.159,-0.579474 -1.4901,-0.745044 -0.1656,-0.331125 -0.4139,-0.745038 -0.745,-1.24174 -0.4968,-0.827819 -0.7451,-2.152341 -0.7451,-3.973568 l 0,-21.606277 c 0,-1.821185 0.3311,-3.311271 0.9934,-4.470264 0.8278,-1.324485 1.904,-1.986745 3.2285,-1.986784 1.3245,3.9e-5 2.2351,0.413952 2.7319,1.24174 0.6622,0.662298 1.2417,2.152385 1.7384,4.470264 0.4967,2.317945 0.9934,3.973597 1.4901,4.96696 6.1259,15.232024 14.7353,22.848022 25.8282,22.848017 5.1324,5e-6 10.0166,-1.324516 14.6525,-3.973568 4.6358,-2.814599 6.9537,-7.119294 6.9538,-12.914097 -1e-4,-5.960324 -1.9041,-10.761714 -5.7121,-14.404184 -3.808,-3.642397 -8.4438,-6.457005 -13.9074,-8.443832 -5.4637,-2.152303 -10.9274,-4.30465 -16.391,-6.457049 -5.4637,-2.317861 -10.0995,-5.629164 -13.9075,-9.93392 -3.808,-4.470198 -5.712,-10.016631 -5.712,-16.639316 0,-9.271573 3.7252,-16.722003 11.1757,-22.351323 7.4504,-5.62911 15.6458,-8.44372 24.5864,-8.44383 8.9405,1.1e-4 15.7286,0.74515 20.3645,2.23513 4.6358,1.32463 7.3676,2.56637 8.1955,3.72522 0.9933,1.15906 1.49,2.23523 1.4901,3.22853"
         inkscape:connector-curvature="0" />
      <path
         d="m 3099.8836,-9.8180309 c -14.5698,-4.7e-6 -26.9872,-4.4702641 -37.2522,-13.4107921 -10.0995,-8.940511 -15.1492,-21.854594 -15.1492,-38.742289 0,-17.053166 4.6358,-31.291771 13.9075,-42.715858 9.4372,-11.42391 21.6062,-17.1359 36.5071,-17.13601 6.9537,1.1e-4 13.2452,1.24184 18.8745,3.72522 5.7947,2.48358 10.2649,5.54653 13.4108,9.18887 3.1456,3.47697 5.7947,7.20218 7.9471,11.175665 3.6424,6.788255 5.4636,11.920775 5.4637,15.397576 -1e-4,2.980241 -3.3942,4.470327 -10.1823,4.470264 l -63.8254,0 c -1.3246,6.3e-5 -2.1524,0.165629 -2.4835,0.496696 -0.1656,0.165628 -0.2484,0.910671 -0.2484,2.235132 0,15.563187 4.1391,27.81501 12.4174,36.755505 8.4438,8.940543 18.2949,13.410803 29.5535,13.410793 6.9536,10e-6 13.9901,-1.821207 21.1095,-5.463656 7.2848,-3.807984 11.0928,-5.711983 11.424,-5.712005 1.6556,2.2e-5 2.4834,0.745065 2.4835,2.235132 -10e-5,1.986802 -1.8213,4.718627 -5.4636,8.195485 -3.6426,3.311314 -7.1194,6.04314 -10.4307,8.195484 -7.9472,5.132523 -17.3016,7.6987834 -28.0633,7.6987881 m -28.3116,-74.0077061 43.7092,-1.490088 c 2.3178,7.1e-5 3.7251,-0.165494 4.2219,-0.496696 0.6622,-0.496624 0.9933,-1.32445 0.9934,-2.48348 -1e-4,-4.966882 -2.318,-10.761663 -6.9537,-17.384359 -4.6359,-6.62252 -11.093,-9.93382 -19.3712,-9.93392 -8.2783,10e-5 -14.6526,3.3114 -19.1228,9.93392 -4.4703,6.457131 -6.7054,12.583043 -6.7054,18.377751 0,2.317985 1.0762,3.476941 3.2286,3.476872"
         inkscape:connector-curvature="0" />
      <path
         d="m 3166.6389,-104.68697 -2.7318,-0.24835 c -3.1457,9e-5 -4.7186,-1.32443 -4.7186,-3.97357 0,-1.82112 1.0762,-3.14564 3.2285,-3.97356 2.3179,-0.9933 6.4571,-2.4006 12.4174,-4.22192 6.1259,-1.98668 10.9273,-3.72511 14.4042,-5.21531 3.4768,-1.65554 5.5464,-2.48337 6.2087,-2.48348 2.1523,1.1e-4 3.2285,1.65576 3.2285,4.96696 l -0.2483,6.7054 c -10e-5,5.96044 0.1655,9.27175 0.4967,9.93392 0.4966,0.49678 0.9105,0.74513 1.2417,0.74504 0.4967,9e-5 1.8212,-1.65556 3.9736,-4.96696 2.1523,-3.31121 5.2152,-6.62251 9.1889,-9.93392 3.9735,-3.47676 7.8643,-5.2152 11.6723,-5.21531 3.9735,1.1e-4 8.0299,1.40742 12.1691,4.22192 4.139,2.64915 6.2086,5.38097 6.2087,8.19548 -10e-5,2.64914 -0.6624,5.13262 -1.9868,7.45044 -2.318,3.973657 -4.4704,5.960439 -6.4571,5.960357 -1.3246,8.2e-5 -3.7253,-0.993309 -7.202,-2.980176 -3.3114,-1.986701 -7.2022,-2.980091 -11.6724,-2.980181 -4.4703,9e-5 -8.6922,1.82131 -12.6658,5.463661 -3.808,3.642516 -5.712,6.95382 -5.712,9.93392 l 0,25.828193 0.2484,21.606276 0.2483,4.470264 c 0,3.47689 1.1589,6.457063 3.4769,8.940529 2.3179,2.483489 4.4702,3.890793 6.4571,4.221916 2.1523,0.331138 3.9735,0.579486 5.4636,0.745044 1.49,0.165572 2.649,0.331137 3.4769,0.496696 0.8277,6e-6 1.7384,0.165571 2.7318,0.496696 1.8212,0.331136 2.7318,1.572875 2.7318,3.72522 0,1.986784 -0.9934,2.980175 -2.9801,2.980176 l -21.1096,-1.24174 -25.8282,1.24174 c -2.9802,-1e-6 -4.6359,-0.331131 -4.967,-0.993392 -0.3311,-0.66226 -0.4967,-1.324521 -0.4967,-1.986784 0,-2.152345 1.0762,-3.559649 3.2286,-4.221916 4.3046,-0.993385 6.8709,-3.062949 7.6987,-6.2087 0.9934,-3.311291 1.4901,-10.265028 1.4901,-20.861233 l -0.2483,-39.984029 -0.2484,-7.45044 c 0,-1.821136 -0.2483,-3.311223 -0.745,-4.470265 -1.3245,-3.145652 -5.2153,-4.718522 -11.6724,-4.718612"
         inkscape:connector-curvature="0" />
      <path
         d="m 3328.3134,-114.12419 0.9934,14.900877 c -10e-5,2.814692 -0.3313,4.718692 -0.9934,5.712004 -0.6624,0.99347 -1.6558,1.490165 -2.9802,1.490088 -1.159,7.7e-5 -2.4836,-1.158879 -3.9736,-3.476872 -1.3246,-2.483397 -2.8974,-5.132437 -4.7186,-7.947137 -1.6557,-2.81452 -4.4703,-5.38078 -8.4438,-7.69879 -3.8081,-2.48338 -8.1956,-3.72512 -13.1625,-3.72522 -4.967,1e-4 -9.0233,1.24184 -12.169,3.72522 -3.1458,2.31801 -4.7187,4.88427 -4.7186,7.69879 -1e-4,2.8147 0.2483,5.13261 0.745,6.953745 0.4967,1.655733 1.3245,3.14582 2.4835,4.470264 1.3245,1.324599 2.4006,2.483555 3.2285,3.476872 0.9934,0.8279 2.5662,1.738508 4.7186,2.731828 2.1523,0.993462 3.7252,1.738505 4.7186,2.235132 1.1589,0.331199 2.9802,0.99346 5.4637,1.986784 15.0664,5.298153 24.7519,10.513456 29.0567,15.645924 4.3046,4.967007 6.457,12.169092 6.4571,21.606277 -10e-5,9.437245 -4.3876,18.129416 -13.1625,26.076541 -5.9604,5.132524 -14.1559,7.698784 -24.5864,7.698788 -7.1194,-4e-6 -15.0665,-1.738438 -23.8414,-5.215308 -2.4836,-0.99339 -3.9736,-1.490085 -4.4703,-1.490088 -0.3312,-0.165563 -0.9934,-0.41391 -1.9868,-0.745044 -0.8278,-0.331127 -1.4901,-0.496692 -1.9868,-0.496696 -0.3311,-0.165561 -0.8278,-0.413909 -1.4901,-0.745044 -0.6622,-0.331126 -1.1589,-0.579474 -1.4901,-0.745044 -0.1655,-0.331125 -0.4139,-0.745038 -0.745,-1.24174 -0.4967,-0.827819 -0.7451,-2.152341 -0.745,-3.973568 l 0,-21.606277 c -1e-4,-1.821185 0.3311,-3.311271 0.9933,-4.470264 0.8279,-1.324485 1.904,-1.986745 3.2286,-1.986784 1.3245,3.9e-5 2.2351,0.413952 2.7318,1.24174 0.6622,0.662298 1.2417,2.152385 1.7384,4.470264 0.4967,2.317945 0.9934,3.973597 1.4901,4.96696 6.1259,15.232024 14.7353,22.848022 25.8282,22.848017 5.1325,5e-6 10.0167,-1.324516 14.6525,-3.973568 4.6358,-2.814599 6.9537,-7.119294 6.9538,-12.914097 -1e-4,-5.960324 -1.9041,-10.761714 -5.712,-14.404184 -3.8081,-3.642397 -8.4439,-6.457005 -13.9075,-8.443832 -5.4637,-2.152303 -10.9274,-4.30465 -16.391,-6.457049 -5.4637,-2.317861 -10.0995,-5.629164 -13.9075,-9.93392 -3.808,-4.470198 -5.712,-10.016631 -5.712,-16.639316 0,-9.271573 3.7252,-16.722003 11.1757,-22.351323 7.4504,-5.62911 15.6459,-8.44372 24.5865,-8.44383 8.9404,1.1e-4 15.7286,0.74515 20.3645,2.23513 4.6357,1.32463 7.3676,2.56637 8.1955,3.72522 0.9933,1.15906 1.49,2.23523 1.4901,3.22853"
         inkscape:connector-curvature="0" />
      <path
         d="m 3565.6021,-105.18367 19.8678,-0.24834 3.7253,0 c 2.6488,9e-5 3.9733,0.74513 3.9735,2.23513 -2e-4,1.15904 -2.1525,2.64913 -6.457,4.470263 -4.1393,1.821301 -6.4572,4.139213 -6.9538,6.953744 -1.1591,7.119379 -1.7386,14.81816 -1.7384,23.096364 -2e-4,8.112748 0.083,14.073094 0.2484,17.881057 0.1653,3.808035 0.2481,6.53986 0.2483,8.195484 0.1654,1.490115 0.331,2.814636 0.4967,3.973568 0.1654,1.158981 0.2482,2.069589 0.2483,2.731828 -10e-5,0.662282 -0.6624,1.241761 -1.9867,1.738436 -1.1592,0.33115 -3.146,0.910628 -5.9604,1.738436 -2.8148,0.662279 -5.381,1.738453 -7.6988,3.228525 -2.3181,1.324536 -4.0565,2.317927 -5.2153,2.980176 -1.1591,0.662272 -2.732,1.490098 -4.7186,2.48348 -1.8214,0.9934 -3.7254,1.986791 -5.712,2.980176 -1.9869,0.993397 -4.2221,2.069571 -6.7054,3.228524 -2.4836,0.993394 -5.0499,1.904002 -7.6988,2.731828 -2.6492,0.827826 -5.381,1.572869 -8.1955,2.235132 -6.2916,1.490085 -12.2519,2.235128 -17.881,2.235132 -18.0467,-4e-6 -33.7754,-2.400699 -47.1861,-7.202092 -13.2453,-4.966952 -23.5104,-11.589559 -30.7952,-19.867841 -14.2386,-16.390929 -21.3579,-36.010402 -21.3579,-58.858477 0,-18.046523 3.5596,-34.271913 10.6789,-48.676213 7.2849,-14.40404 18.3777,-25.9936 33.2787,-34.76872 14.9008,-8.94035 32.6163,-13.41061 53.1464,-13.41079 19.7022,1.8e-4 36.7554,3.72539 51.1597,11.17566 3.3112,1.82138 5.7947,3.39425 7.4505,4.71861 1.821,1.15912 2.8972,1.7386 3.2285,1.73844 0.4965,1.6e-4 1.5727,-0.57932 3.2285,-1.73844 1.8211,-1.32436 3.0628,-1.98662 3.7252,-1.98678 2.4833,1.6e-4 3.7251,2.06973 3.7253,6.2087 0.1653,3.97372 0.4965,8.60955 0.9934,13.90749 0.662,5.29823 1.2415,9.6857 1.7384,13.16244 0.4965,3.477 0.7448,5.54657 0.745,6.2087 -2e-4,2.81473 -0.9935,4.22204 -2.9801,4.22192 -1.987,1.2e-4 -3.3943,-0.99327 -4.222,-2.98018 -5.7949,-12.58283 -15.4805,-23.179 -29.0567,-31.78854 -13.5765,-8.7748 -27.5667,-13.16228 -41.9708,-13.16245 -20.6957,1.7e-4 -37.8317,6.54 -51.408,19.61949 -13.4109,12.91424 -20.1163,30.87806 -20.1162,53.89152 -1e-4,15.232093 2.8146,29.553481 8.4438,42.964207 5.6292,13.410832 14.1558,24.503698 25.5799,33.278633 11.5895,8.774974 24.2552,13.162451 37.9972,13.162445 13.9074,6e-6 25.9936,-2.897385 36.2588,-8.69218 10.4305,-5.794767 16.2253,-12.417374 17.3844,-19.867841 0.4965,-3.97353 0.7449,-14.404136 0.745,-31.291849 -10e-5,-6.456976 -1.2419,-10.844453 -3.7252,-13.162444 -2.3181,-2.483399 -6.0433,-3.973485 -11.1757,-4.470264 -5.1326,-0.662178 -8.03,-1.490004 -8.6921,-2.483477 -0.4969,-1.15887 -0.7452,-2.23505 -0.7451,-3.22853 -1e-4,-1.82113 1.49,-2.73173 4.4703,-2.73183 l 27.5666,1.24174"
         inkscape:connector-curvature="0" />
      <path
         d="m 3613.3743,-104.68697 -2.7318,-0.24835 c -3.1458,9e-5 -4.7187,-1.32443 -4.7186,-3.97357 -10e-5,-1.82112 1.0761,-3.14564 3.2285,-3.97356 2.3179,-0.9933 6.457,-2.4006 12.4174,-4.22192 6.1259,-1.98668 10.9273,-3.72511 14.4042,-5.21531 3.4768,-1.65554 5.5464,-2.48337 6.2087,-2.48348 2.1523,1.1e-4 3.2284,1.65576 3.2285,4.96696 l -0.2484,6.7054 c 0,5.96044 0.1656,9.27175 0.4967,9.93392 0.4967,0.49678 0.9106,0.74513 1.2418,0.74504 0.4966,9e-5 1.8211,-1.65556 3.9735,-4.96696 2.1523,-3.31121 5.2153,-6.62251 9.1889,-9.93392 3.9735,-3.47676 7.8643,-5.2152 11.6724,-5.21531 3.9735,1.1e-4 8.0298,1.40742 12.169,4.22192 4.1391,2.64915 6.2086,5.38097 6.2087,8.19548 -1e-4,2.64914 -0.6623,5.13262 -1.9868,7.45044 -2.318,3.973657 -4.4703,5.960439 -6.457,5.960357 -1.3246,8.2e-5 -3.7253,-0.993309 -7.2021,-2.980176 -3.3114,-1.986701 -7.2022,-2.980091 -11.6724,-2.980181 -4.4703,9e-5 -8.6922,1.82131 -12.6657,5.463661 -3.8081,3.642516 -5.7121,6.95382 -5.712,9.93392 l 0,25.828193 0.2483,21.606276 0.2484,4.470264 c -10e-5,3.47689 1.1589,6.457063 3.4769,8.940529 2.3178,2.483489 4.4702,3.890793 6.457,4.221916 2.1523,0.331138 3.9735,0.579486 5.4637,0.745044 1.49,0.165572 2.6489,0.331137 3.4768,0.496696 0.8278,6e-6 1.7384,0.165571 2.7319,0.496696 1.8211,0.331136 2.7317,1.572875 2.7318,3.72522 -10e-5,1.986784 -0.9935,2.980175 -2.9802,2.980176 l -21.1096,-1.24174 -25.8282,1.24174 c -2.9801,-1e-6 -4.6358,-0.331131 -4.9669,-0.993392 -0.3312,-0.66226 -0.4967,-1.324521 -0.4967,-1.986784 0,-2.152345 1.0761,-3.559649 3.2285,-4.221916 4.3047,-0.993385 6.871,-3.062949 7.6988,-6.2087 0.9934,-3.311291 1.4901,-10.265028 1.4901,-20.861233 l -0.2484,-39.984029 -0.2483,-7.45044 c 0,-1.821136 -0.2484,-3.311223 -0.7451,-4.470265 -1.3245,-3.145652 -5.2153,-4.718522 -11.6723,-4.718612"
         inkscape:connector-curvature="0" />
      <path
         d="m 3758.6577,-10.066379 c -16.8877,-4e-6 -30.3812,-5.380872 -40.4807,-16.14262 -9.9339,-10.92729 -14.9009,-23.924156 -14.9009,-38.990637 0,-15.066381 5.1326,-28.228812 15.3976,-39.487334 10.4306,-11.25834 24.0897,-16.88756 40.9774,-16.88766 17.0532,1e-4 31.2918,4.88428 42.7159,14.65253 11.5894,9.768436 17.3842,23.34478 17.3844,40.729071 -2e-4,17.384395 -5.9605,31.126305 -17.8811,41.22577 -11.7552,9.93392 -26.1594,14.900876 -43.2126,14.90088 m -2.7318,-104.802861 c -8.6094,1e-4 -16.3082,3.39419 -23.0963,10.18227 -6.6227,6.788263 -9.934,17.963912 -9.934,33.526981 0,15.563183 4.553,28.394484 13.6592,38.493941 9.106,10.099494 18.8744,15.149232 29.305,15.149229 10.5961,3e-6 19.1227,-3.559648 25.5799,-10.678964 6.4569,-7.284854 9.6854,-17.881025 9.6856,-31.788545 -2e-4,-13.907429 -3.9737,-26.490383 -11.9208,-37.748897 -7.9472,-11.423915 -19.04,-17.135915 -33.2786,-17.136015"
         inkscape:connector-curvature="0" />
      <path
         d="m 3852.7507,-53.278932 0.2484,-44.702641 c -1e-4,-3.311217 -0.9107,-5.960267 -2.7319,-7.947137 -1.6556,-1.98669 -3.2285,-2.98008 -4.7186,-2.98018 l -4.4702,0 c -2.9802,1e-4 -4.4703,-1.15886 -4.4703,-3.47687 0,-2.31781 1.5729,-3.8079 4.7186,-4.47026 3.3113,-0.66216 7.2849,-0.99329 11.9207,-0.99339 l 14.1558,-1.24174 c 2.8146,1e-4 4.4703,0.57958 4.967,1.73843 0.4967,1.15906 0.745,4.05645 0.745,8.69218 0,4.63592 -0.2483,11.01018 -0.745,19.122799 -0.3312,7.947203 -0.4967,16.80494 -0.4967,26.573237 0,14.569783 2.8146,24.917606 8.4438,31.0435 5.6292,5.960364 12.0035,8.940537 19.1228,8.940529 10.5961,8e-6 18.2949,-2.235122 23.0964,-6.705396 4.8013,-4.470245 7.202,-12.334591 7.2021,-23.593061 l -0.4967,-34.272025 c -1e-4,-8.278186 -0.6624,-13.824623 -1.9868,-16.639313 -1.3246,-2.98009 -4.1392,-4.63574 -8.4438,-4.96696 -4.3048,-0.4966 -6.4572,-1.65556 -6.4571,-3.47688 -1e-4,-3.8079 7.2848,-5.7119 21.8547,-5.712 l 8.9405,-1.24174 c 2.4833,1e-4 4.0562,0.41402 4.7186,1.24174 0.8277,0.82793 1.2416,2.06967 1.2417,3.72522 -1e-4,1.49019 -0.083,3.47697 -0.2483,5.96035 -10e-5,2.31801 -0.083,5.46375 -0.2484,9.437227 -10e-5,3.973648 -0.083,8.443908 -0.2483,13.410792 -0.3313,9.933982 -0.4968,21.026848 -0.4967,33.278633 -10e-5,12.251861 0.4966,20.198989 1.4901,23.841409 0.9933,3.642448 2.8145,5.463664 5.4636,5.463656 l 6.4571,-0.248348 c 3.9734,9e-6 5.9602,0.9934 5.9603,2.980176 -10e-5,1.986788 -0.5796,3.228527 -1.7384,3.72522 -1.1591,0.496698 -3.3942,0.745045 -6.7054,0.745044 -3.3114,1e-6 -8.3612,0.496697 -15.1492,1.490088 -6.6227,0.827826 -10.1824,1.241739 -10.679,1.24174 -1.159,-1e-6 -2.1524,-2.069566 -2.9802,-6.2087 -0.6623,-4.30469 -1.159,-6.457037 -1.49,-6.457048 -0.1657,1.1e-5 -1.7386,1.324532 -4.7187,3.973568 -2.9802,2.64905 -7.2849,5.298093 -12.9141,7.947136 -5.4637,2.649042 -11.5068,3.973564 -18.1294,3.973568 -26.656,-4e-6 -39.984,-14.404174 -39.984,-43.212553"
         inkscape:connector-curvature="0" />
      <path
         d="m 3997.3319,0.86093342 0.745,-68.54405042 0,-5.463656 c 0,-13.74185 -0.6623,-22.847935 -1.9868,-27.318277 -1.159,-4.63574 -4.3875,-6.95365 -9.6856,-6.95375 -2.8146,1e-4 -4.553,-0.16547 -5.2153,-0.49669 -0.6622,-0.49661 -0.9934,-1.15887 -0.9934,-1.98679 0,-0.99329 0.6623,-1.73834 1.9868,-2.23513 1.4901,-0.4966 4.3875,-1.40721 8.6922,-2.73183 4.3047,-1.32442 9.2716,-3.3112 14.9009,-5.96035 5.6292,-2.8145 8.6921,-4.22181 9.1889,-4.22192 2.1523,1.1e-4 3.2284,1.07629 3.2285,3.22853 l -0.9934,14.65253 c 0,1.32461 0.1655,1.98687 0.4967,1.98678 0.3311,9e-5 1.0761,-0.57938 2.2351,-1.73843 1.3245,-1.15887 2.9802,-2.56617 4.967,-4.22192 1.9867,-1.82112 4.3874,-3.55955 7.2021,-5.21531 6.457,-3.97346 14.1557,-5.96024 23.0963,-5.96035 14.7353,1.1e-4 25.9937,4.88428 33.7754,14.65253 7.7814,9.602877 11.6722,21.771918 11.6723,36.507161 -10e-5,14.569792 -4.8843,28.063354 -14.6525,40.480726 -9.6029,12.251838 -22.517,18.37775 -38.7423,18.377752 -7.6161,-2e-6 -13.8248,-0.745045 -18.6261,-2.235132 -4.6359,-1.655652 -7.8644,-3.228521 -9.6856,-4.718612 -1.8212,-1.655647 -3.063,-2.483473 -3.7252,-2.48348 -0.4967,7e-6 -0.7451,0.662268 -0.745,1.986784 l 0,30.546805 c -1e-4,3.145713 1.4072,7.036494 4.2219,11.672356 1.8212,2.980136 4.553,4.71857 8.1955,5.215308 3.8079,0.496653 6.9537,0.827784 9.4372,0.993392 2.649,0.165522 3.9735,1.241696 3.9736,3.228524 -1e-4,2.152301 -2.8147,3.228475 -8.4439,3.228524 -0.9934,-4.9e-5 -3.6425,-0.165614 -7.9471,-0.496696 -4.3047,-0.331179 -10.2651,-0.496744 -17.8811,-0.496696 l -15.6459,0.745044 c -3.6424,-4.9e-5 -5.9603,-0.165614 -6.9537,-0.496696 -0.9934,-0.331179 -1.4901,-1.159005 -1.4901,-2.48348 0,-1.159002 0.745,-2.069611 2.2351,-2.731828 1.6557,-0.662304 3.4769,-1.241782 5.4637,-1.738436 1.9867,-0.496737 3.7252,-2.566302 5.2153,-6.2087 1.6556,-3.476904 2.4834,-8.609425 2.4835,-15.3975764 l 0,-4.96696018 m 17.136,-63.08039342 0.2483,12.4174 c 0,5.794816 1.2417,10.761771 3.7252,14.90088 2.4835,4.13915 5.712,7.284888 9.6856,9.437225 7.2848,3.80801 14.9836,5.712009 23.0964,5.712004 10.7616,5e-6 18.9571,-3.890777 24.5864,-11.672357 5.7947,-7.947111 8.6921,-18.046586 8.6922,-30.298456 -10e-5,-12.251776 -3.5598,-23.344643 -10.679,-33.278633 -6.9538,-9.933833 -16.391,-14.900783 -28.3116,-14.900883 -8.4439,1e-4 -15.9771,2.64914 -22.5997,7.94714 -3.4769,2.649129 -5.7948,6.291562 -6.9537,10.927311 -0.9935,4.470336 -1.4902,14.073116 -1.4901,28.808369"
         inkscape:connector-curvature="0" />
    </g>
  </g>
</svg>
